<?xml version="1.0" encoding="UTF-8"?> <svg xmlns="http://www.w3.org/2000/svg" width="1118" height="245" viewBox="0 0 1118 245" fill="none"><path fill-rule="evenodd" clip-rule="evenodd" d="M214.668 29.646C225.778 40.7702 210.959 70.4172 140.645 140.819C70.3305 211.221 40.6777 226.016 29.61 214.934C18.5422 203.853 33.3189 174.163 103.633 103.761C173.947 33.3596 203.558 18.5219 214.668 29.646Z" fill="#E63888"></path><path fill-rule="evenodd" clip-rule="evenodd" d="M155.449 14.8231C166.582 25.9694 148.058 51.8695 99.9315 100.056C51.805 148.242 25.8252 166.677 14.8046 155.643C3.78407 144.608 22.1958 118.596 70.3223 70.4098C118.449 22.2234 144.317 3.67667 155.449 14.8231Z" fill="#E63888"></path><path fill-rule="evenodd" clip-rule="evenodd" d="M229.472 88.9383C240.555 100.035 222.081 125.985 173.954 174.171C125.827 222.358 99.9102 240.855 88.8271 229.758C77.744 218.661 96.2182 192.711 144.345 144.525C192.471 96.3386 218.389 77.8414 229.472 88.9383Z" fill="#E63888"></path><path fill-rule="evenodd" clip-rule="evenodd" d="M86.978 20.3816C92.0848 25.4947 81.3738 44.5216 59.2193 66.7037C37.0648 88.8858 18.0616 99.6101 12.9548 94.4969C7.84801 89.3838 18.559 70.3569 40.7135 48.1748C62.868 25.9927 81.8712 15.2685 86.978 20.3816Z" fill="#E63888"></path><path fill-rule="evenodd" clip-rule="evenodd" d="M224.847 158.42C230.464 164.045 220.456 183.198 198.731 204.95C177.006 226.702 157.876 236.723 152.259 231.099C146.641 225.474 156.65 206.321 178.375 184.569C200.099 162.817 219.229 152.796 224.847 158.42Z" fill="#E63888"></path><path d="M263.464 221.836H291.662V48.4939H351.695V221.836H379.893V22.6898H263.464V221.836ZM516.273 225.479C585.403 225.479 629.67 186.014 629.67 124.388V120.442C629.67 58.8155 585.403 19.0469 516.273 19.0469C446.84 19.0469 402.572 58.8155 402.572 120.442V124.388C402.572 186.014 446.84 225.479 516.273 225.479ZM433.196 124.995V120.138C433.196 74.6015 463.819 47.2796 516.273 47.2796C568.423 47.2796 599.047 74.6015 599.047 120.138V124.995C599.047 170.228 568.423 197.247 516.273 197.247C463.819 197.247 433.196 170.228 433.196 124.995ZM673.634 221.836H701.529V48.4939H745.796V22.6898H629.367V48.4939H673.634V221.836ZM859.189 225.479C928.319 225.479 972.587 186.014 972.587 124.388V120.442C972.587 58.8155 928.319 19.0469 859.189 19.0469C789.756 19.0469 745.489 58.8155 745.489 120.442V124.388C745.489 186.014 789.756 225.479 859.189 225.479ZM776.112 124.995V120.138C776.112 74.6015 806.736 47.2796 859.189 47.2796C911.34 47.2796 941.963 74.6015 941.963 120.138V124.995C941.963 170.228 911.34 197.247 859.189 197.247C806.736 197.247 776.112 170.228 776.112 124.995ZM1087.95 221.836H1117.06V217.586L1070.67 121.96L1115.85 26.9399V22.6898H1087.35L1046.72 109.513H1024.89V22.6898H996.691V221.836H1024.89V135.013H1046.72L1087.95 221.836Z" fill="#E63888"></path></svg> 