<svg width="18" height="18" viewBox="0 0 18 18" fill="none" xmlns="http://www.w3.org/2000/svg">
<path d="M8.96753 2.4425L9.46847 1.57127C9.7777 1.02676 10.4673 0.843181 11.0084 1.15433C11.5496 1.46548 11.732 2.15935 11.4228 2.70386L6.59577 11.1112H10.0869C11.2187 11.1112 11.8526 12.4491 11.3609 13.3763H1.12558C0.500945 13.3763 0 12.8723 0 12.2437C0 11.6152 0.500945 11.1112 1.12558 11.1112H3.99519L7.66878 4.70456L6.52156 2.70075C6.21233 2.15624 6.39478 1.46859 6.93592 1.15122C7.47706 0.84007 8.16045 1.02365 8.47586 1.56816L8.96753 2.4425ZM4.62601 14.5432L3.54372 16.4318C3.2345 16.9764 2.54492 17.1599 2.00378 16.8488C1.46264 16.5376 1.28019 15.8438 1.58942 15.2992L2.3934 13.8991C3.30253 13.6159 4.04157 13.8337 4.62601 14.5432ZM13.9461 11.1174H16.8744C17.4991 11.1174 18 11.6214 18 12.25C18 12.8785 17.4991 13.3826 16.8744 13.3826H15.2479L16.3456 15.2992C16.6549 15.8438 16.4724 16.5314 15.9313 16.8488C15.3901 17.1599 14.7067 16.9764 14.3913 16.4318C12.5422 13.2052 11.1538 10.7907 10.2323 9.18202C9.28912 7.54537 9.96324 5.90249 10.6281 5.34553C11.3671 6.62125 12.4711 8.54728 13.9461 11.1174Z" fill="white"/>
</svg>
