<?xml version="1.0" encoding="UTF-8"?> <svg xmlns="http://www.w3.org/2000/svg" width="343" height="41" viewBox="0 0 343 41" fill="none"><rect width="343" height="41" rx="20.5" fill="black"></rect><rect width="343" height="41" rx="20.5" fill="white" fill-opacity="0.05"></rect><rect x="4" y="4" width="167.5" height="33" rx="16.5" fill="black"></rect><rect x="4" y="4" width="167.5" height="33" rx="16.5" fill="white" fill-opacity="0.05"></rect><path d="M37.2472 17.593V15.8182H45.6094V17.593H42.4922V26H40.3643V17.593H37.2472ZM48.5896 26.1491C47.8173 26.1491 47.1495 25.9851 46.586 25.657C46.0259 25.3255 45.5934 24.8648 45.2885 24.2749C44.9835 23.6816 44.8311 22.9938 44.8311 22.2116C44.8311 21.4228 44.9835 20.7334 45.2885 20.1435C45.5934 19.5502 46.0259 19.0895 46.586 18.7614C47.1495 18.4299 47.8173 18.2642 48.5896 18.2642C49.3618 18.2642 50.028 18.4299 50.5882 18.7614C51.1516 19.0895 51.5858 19.5502 51.8907 20.1435C52.1957 20.7334 52.3481 21.4228 52.3481 22.2116C52.3481 22.9938 52.1957 23.6816 51.8907 24.2749C51.5858 24.8648 51.1516 25.3255 50.5882 25.657C50.028 25.9851 49.3618 26.1491 48.5896 26.1491ZM48.5995 24.5085C48.9509 24.5085 49.2442 24.4091 49.4795 24.2102C49.7148 24.008 49.8922 23.733 50.0115 23.3849C50.1341 23.0369 50.1954 22.6409 50.1954 22.1967C50.1954 21.7526 50.1341 21.3565 50.0115 21.0085C49.8922 20.6605 49.7148 20.3854 49.4795 20.1832C49.2442 19.9811 48.9509 19.88 48.5995 19.88C48.2449 19.88 47.9466 19.9811 47.7047 20.1832C47.466 20.3854 47.2854 20.6605 47.1627 21.0085C47.0434 21.3565 46.9838 21.7526 46.9838 22.1967C46.9838 22.6409 47.0434 23.0369 47.1627 23.3849C47.2854 23.733 47.466 24.008 47.7047 24.2102C47.9466 24.4091 48.2449 24.5085 48.5995 24.5085ZM52.5778 26L52.5679 24.3196H52.8214C53.0004 24.3196 53.1545 24.2765 53.2838 24.1903C53.4163 24.1009 53.5257 23.9567 53.6119 23.7578C53.6981 23.5589 53.766 23.2955 53.8157 22.9673C53.8654 22.6359 53.8986 22.2282 53.9152 21.7443L54.0395 18.3636H59.8463V26H57.8278V20.0291H55.9436L55.8243 22.3608C55.7944 23.0005 55.7165 23.5507 55.5906 24.0114C55.468 24.4721 55.2973 24.8499 55.0785 25.1449C54.8598 25.4366 54.5963 25.652 54.288 25.7912C53.9798 25.9304 53.6218 26 53.2142 26H52.5778ZM62.1156 20.7102H64.3975C65.4084 20.7102 66.1972 20.9522 66.764 21.4361C67.3308 21.9167 67.6141 22.5597 67.6141 23.3651C67.6141 23.8887 67.4865 24.3494 67.2313 24.7472C66.9761 25.1416 66.6082 25.4498 66.1276 25.6719C65.647 25.8906 65.0703 26 64.3975 26H60.7881V18.3636H62.8116V24.3345H64.3975C64.7522 24.3345 65.0438 24.245 65.2725 24.0661C65.5012 23.8871 65.6172 23.6584 65.6205 23.38C65.6172 23.085 65.5012 22.8447 65.2725 22.6591C65.0438 22.4702 64.7522 22.3757 64.3975 22.3757H62.1156V20.7102ZM68.3186 26V18.3636H70.4365V21.3267H71.0331L73.1112 18.3636H75.597L72.8974 22.152L75.6268 26H73.1112L71.227 23.2905H70.4365V26H68.3186ZM78.9576 26.1491C78.1853 26.1491 77.5175 25.9851 76.954 25.657C76.3939 25.3255 75.9614 24.8648 75.6564 24.2749C75.3515 23.6816 75.199 22.9938 75.199 22.2116C75.199 21.4228 75.3515 20.7334 75.6564 20.1435C75.9614 19.5502 76.3939 19.0895 76.954 18.7614C77.5175 18.4299 78.1853 18.2642 78.9576 18.2642C79.7298 18.2642 80.396 18.4299 80.9561 18.7614C81.5196 19.0895 81.9538 19.5502 82.2587 20.1435C82.5636 20.7334 82.7161 21.4228 82.7161 22.2116C82.7161 22.9938 82.5636 23.6816 82.2587 24.2749C81.9538 24.8648 81.5196 25.3255 80.9561 25.657C80.396 25.9851 79.7298 26.1491 78.9576 26.1491ZM78.9675 24.5085C79.3188 24.5085 79.6122 24.4091 79.8475 24.2102C80.0828 24.008 80.2601 23.733 80.3794 23.3849C80.5021 23.0369 80.5634 22.6409 80.5634 22.1967C80.5634 21.7526 80.5021 21.3565 80.3794 21.0085C80.2601 20.6605 80.0828 20.3854 79.8475 20.1832C79.6122 19.9811 79.3188 19.88 78.9675 19.88C78.6129 19.88 78.3146 19.9811 78.0726 20.1832C77.834 20.3854 77.6534 20.6605 77.5307 21.0085C77.4114 21.3565 77.3517 21.7526 77.3517 22.1967C77.3517 22.6409 77.4114 23.0369 77.5307 23.3849C77.6534 23.733 77.834 24.008 78.0726 24.2102C78.3146 24.4091 78.6129 24.5085 78.9675 24.5085ZM85.3766 15.8182H87.7879L90.1096 20.2031H90.209L92.5308 15.8182H94.942L91.2282 22.4006V26H89.0904V22.4006L85.3766 15.8182ZM97.2287 26.1491C96.4564 26.1491 95.7886 25.9851 95.2251 25.657C94.665 25.3255 94.2324 24.8648 93.9275 24.2749C93.6226 23.6816 93.4701 22.9938 93.4701 22.2116C93.4701 21.4228 93.6226 20.7334 93.9275 20.1435C94.2324 19.5502 94.665 19.0895 95.2251 18.7614C95.7886 18.4299 96.4564 18.2642 97.2287 18.2642C98.0009 18.2642 98.6671 18.4299 99.2272 18.7614C99.7907 19.0895 100.225 19.5502 100.53 20.1435C100.835 20.7334 100.987 21.4228 100.987 22.2116C100.987 22.9938 100.835 23.6816 100.53 24.2749C100.225 24.8648 99.7907 25.3255 99.2272 25.657C98.6671 25.9851 98.0009 26.1491 97.2287 26.1491ZM97.2386 24.5085C97.5899 24.5085 97.8833 24.4091 98.1186 24.2102C98.3539 24.008 98.5312 23.733 98.6505 23.3849C98.7732 23.0369 98.8345 22.6409 98.8345 22.1967C98.8345 21.7526 98.7732 21.3565 98.6505 21.0085C98.5312 20.6605 98.3539 20.3854 98.1186 20.1832C97.8833 19.9811 97.5899 19.88 97.2386 19.88C96.884 19.88 96.5857 19.9811 96.3437 20.1832C96.1051 20.3854 95.9244 20.6605 95.8018 21.0085C95.6825 21.3565 95.6228 21.7526 95.6228 22.1967C95.6228 22.6409 95.6825 23.0369 95.8018 23.3849C95.9244 23.733 96.1051 24.008 96.3437 24.2102C96.5857 24.4091 96.884 24.5085 97.2386 24.5085ZM106.561 22.7486V18.3636H108.679V26H106.646V24.6129H106.566C106.394 25.0604 106.107 25.42 105.706 25.6918C105.308 25.9635 104.823 26.0994 104.25 26.0994C103.739 26.0994 103.29 25.9834 102.902 25.7514C102.514 25.5194 102.211 25.1896 101.992 24.7621C101.777 24.3345 101.668 23.8224 101.664 23.2259V18.3636H103.782V22.848C103.786 23.2988 103.906 23.6551 104.145 23.9169C104.384 24.1787 104.704 24.3097 105.105 24.3097C105.36 24.3097 105.598 24.2517 105.821 24.1357C106.043 24.0163 106.222 23.8407 106.357 23.6087C106.497 23.3767 106.565 23.09 106.561 22.7486ZM113.735 18.3636V19.9545H109.136V18.3636H113.735ZM110.18 16.5341H112.298V23.6534C112.298 23.849 112.328 24.0014 112.388 24.1108C112.447 24.2169 112.53 24.2914 112.636 24.3345C112.746 24.3776 112.872 24.3991 113.014 24.3991C113.114 24.3991 113.213 24.3909 113.312 24.3743C113.412 24.3544 113.488 24.3395 113.541 24.3295L113.874 25.9055C113.768 25.9387 113.619 25.9768 113.427 26.0199C113.235 26.0663 113.001 26.0945 112.726 26.1044C112.215 26.1243 111.768 26.0563 111.384 25.9006C111.002 25.7448 110.706 25.5028 110.494 25.1747C110.281 24.8466 110.177 24.4323 110.18 23.9318V16.5341ZM119.312 22.7486V18.3636H121.43V26H119.396V24.6129H119.317C119.144 25.0604 118.858 25.42 118.457 25.6918C118.059 25.9635 117.573 26.0994 117 26.0994C116.49 26.0994 116.04 25.9834 115.653 25.7514C115.265 25.5194 114.962 25.1896 114.743 24.7621C114.527 24.3345 114.418 23.8224 114.415 23.2259V18.3636H116.533V22.848C116.536 23.2988 116.657 23.6551 116.896 23.9169C117.134 24.1787 117.454 24.3097 117.855 24.3097C118.11 24.3097 118.349 24.2517 118.571 24.1357C118.793 24.0163 118.972 23.8407 119.108 23.6087C119.247 23.3767 119.315 23.09 119.312 22.7486ZM122.463 26V15.8182H124.581V19.6463H124.646C124.739 19.4408 124.873 19.232 125.049 19.0199C125.228 18.8045 125.46 18.6255 125.745 18.483C126.033 18.3371 126.391 18.2642 126.819 18.2642C127.375 18.2642 127.889 18.41 128.36 18.7017C128.83 18.9901 129.207 19.4259 129.488 20.0092C129.77 20.5893 129.911 21.3168 129.911 22.1918C129.911 23.0436 129.773 23.7628 129.498 24.3494C129.226 24.9328 128.855 25.3752 128.385 25.6768C127.917 25.9751 127.394 26.1243 126.814 26.1243C126.403 26.1243 126.053 26.0563 125.765 25.9205C125.48 25.7846 125.246 25.6139 125.064 25.4084C124.881 25.1996 124.742 24.9891 124.646 24.777H124.552V26H122.463ZM124.537 22.1818C124.537 22.6359 124.6 23.032 124.726 23.37C124.851 23.7081 125.034 23.9716 125.272 24.1605C125.511 24.3461 125.801 24.4389 126.142 24.4389C126.487 24.4389 126.779 24.3445 127.017 24.1555C127.256 23.9633 127.437 23.6982 127.559 23.3601C127.685 23.0187 127.748 22.6259 127.748 22.1818C127.748 21.741 127.687 21.3532 127.564 21.0185C127.442 20.6837 127.261 20.4219 127.022 20.233C126.784 20.044 126.49 19.9496 126.142 19.9496C125.798 19.9496 125.506 20.0407 125.267 20.223C125.032 20.4053 124.851 20.6638 124.726 20.9986C124.6 21.3333 124.537 21.7277 124.537 22.1818ZM134.104 26.1491C133.319 26.1491 132.643 25.9901 132.076 25.6719C131.512 25.3504 131.078 24.8963 130.773 24.3097C130.468 23.7197 130.316 23.022 130.316 22.2166C130.316 21.4311 130.468 20.7417 130.773 20.1484C131.078 19.5552 131.507 19.0928 132.061 18.7614C132.618 18.4299 133.271 18.2642 134.02 18.2642C134.523 18.2642 134.992 18.3454 135.427 18.5078C135.864 18.6669 136.245 18.9072 136.57 19.2287C136.898 19.5502 137.153 19.9545 137.336 20.4418C137.518 20.9257 137.609 21.4924 137.609 22.142V22.7237H131.161V21.4112H135.616C135.616 21.1063 135.549 20.8362 135.417 20.6009C135.284 20.3655 135.1 20.1816 134.865 20.049C134.633 19.9131 134.363 19.8452 134.054 19.8452C133.733 19.8452 133.448 19.9197 133.199 20.0689C132.954 20.2147 132.762 20.4119 132.623 20.6605C132.483 20.9058 132.412 21.1792 132.409 21.4808V22.7287C132.409 23.1065 132.478 23.433 132.618 23.7081C132.76 23.9832 132.961 24.1953 133.219 24.3445C133.478 24.4936 133.784 24.5682 134.139 24.5682C134.374 24.5682 134.59 24.535 134.785 24.4688C134.981 24.4025 135.148 24.303 135.287 24.1705C135.427 24.0379 135.533 23.8755 135.606 23.6832L137.564 23.8125C137.465 24.2831 137.261 24.6941 136.953 25.0455C136.648 25.3935 136.254 25.6652 135.77 25.8608C135.289 26.053 134.734 26.1491 134.104 26.1491Z" fill="white" fill-opacity="0.5"></path><rect x="171.5" y="4" width="167.5" height="33" rx="16.5" fill="white"></rect><path d="M208.635 26V15.8182H212.712C213.461 15.8182 214.085 15.9292 214.586 16.1513C215.086 16.3733 215.463 16.6816 215.714 17.076C215.966 17.4671 216.092 17.9179 216.092 18.4283C216.092 18.826 216.013 19.1757 215.854 19.4773C215.695 19.7756 215.476 20.0208 215.197 20.2131C214.922 20.402 214.607 20.5362 214.253 20.6158V20.7152C214.641 20.7318 215.004 20.8411 215.342 21.0433C215.683 21.2455 215.96 21.5289 216.172 21.8935C216.384 22.2547 216.49 22.6856 216.49 23.1861C216.49 23.7263 216.356 24.2086 216.087 24.6328C215.822 25.0537 215.429 25.3868 214.909 25.6321C214.389 25.8774 213.747 26 212.985 26H208.635ZM210.788 24.2401H212.543C213.143 24.2401 213.58 24.1257 213.855 23.897C214.13 23.665 214.268 23.3568 214.268 22.9723C214.268 22.6906 214.2 22.442 214.064 22.2266C213.928 22.0111 213.734 21.8421 213.482 21.7195C213.234 21.5968 212.937 21.5355 212.592 21.5355H210.788V24.2401ZM210.788 20.0788H212.384C212.679 20.0788 212.94 20.0275 213.169 19.9247C213.401 19.8187 213.583 19.6695 213.716 19.4773C213.852 19.285 213.92 19.0547 213.92 18.7862C213.92 18.4183 213.789 18.1217 213.527 17.8963C213.268 17.6709 212.901 17.5582 212.423 17.5582H210.788V20.0788ZM220.631 26.1491C219.846 26.1491 219.169 25.9901 218.603 25.6719C218.039 25.3504 217.605 24.8963 217.3 24.3097C216.995 23.7197 216.843 23.022 216.843 22.2166C216.843 21.4311 216.995 20.7417 217.3 20.1484C217.605 19.5552 218.034 19.0928 218.588 18.7614C219.145 18.4299 219.798 18.2642 220.547 18.2642C221.05 18.2642 221.519 18.3454 221.954 18.5078C222.391 18.6669 222.772 18.9072 223.097 19.2287C223.425 19.5502 223.68 19.9545 223.863 20.4418C224.045 20.9257 224.136 21.4924 224.136 22.142V22.7237H217.688V21.4112H222.143C222.143 21.1063 222.076 20.8362 221.944 20.6009C221.811 20.3655 221.627 20.1816 221.392 20.049C221.16 19.9131 220.89 19.8452 220.581 19.8452C220.26 19.8452 219.975 19.9197 219.726 20.0689C219.481 20.2147 219.289 20.4119 219.15 20.6605C219.01 20.9058 218.939 21.1792 218.936 21.4808V22.7287C218.936 23.1065 219.005 23.433 219.145 23.7081C219.287 23.9832 219.488 24.1953 219.746 24.3445C220.005 24.4936 220.311 24.5682 220.666 24.5682C220.901 24.5682 221.117 24.535 221.312 24.4688C221.508 24.4025 221.675 24.303 221.814 24.1705C221.954 24.0379 222.06 23.8755 222.133 23.6832L224.091 23.8125C223.992 24.2831 223.788 24.6941 223.48 25.0455C223.175 25.3935 222.781 25.6652 222.297 25.8608C221.816 26.053 221.261 26.1491 220.631 26.1491ZM228.269 26.1491C227.486 26.1491 226.813 25.9834 226.25 25.652C225.69 25.3172 225.259 24.8532 224.957 24.2599C224.659 23.6667 224.51 22.9839 224.51 22.2116C224.51 21.4295 224.661 20.7434 224.962 20.1534C225.267 19.5601 225.7 19.0978 226.26 18.7663C226.82 18.4316 227.486 18.2642 228.259 18.2642C228.925 18.2642 229.508 18.3852 230.009 18.6271C230.509 18.8691 230.905 19.2088 231.197 19.6463C231.488 20.0838 231.649 20.5975 231.679 21.1875H229.68C229.624 20.8063 229.475 20.4998 229.233 20.2678C228.994 20.0324 228.681 19.9148 228.293 19.9148C227.965 19.9148 227.679 20.0043 227.433 20.1832C227.191 20.3589 227.002 20.6158 226.867 20.9538C226.731 21.2919 226.663 21.7012 226.663 22.1818C226.663 22.669 226.729 23.0833 226.862 23.4247C226.997 23.7661 227.188 24.0263 227.433 24.2053C227.679 24.3842 227.965 24.4737 228.293 24.4737C228.535 24.4737 228.752 24.424 228.945 24.3246C229.14 24.2251 229.301 24.081 229.427 23.892C229.556 23.6998 229.641 23.4695 229.68 23.201H231.679C231.646 23.7843 231.487 24.2981 231.202 24.7422C230.92 25.183 230.531 25.5277 230.033 25.7763C229.536 26.0249 228.948 26.1491 228.269 26.1491ZM233.662 20.7102H235.944C236.955 20.7102 237.744 20.9522 238.311 21.4361C238.878 21.9167 239.161 22.5597 239.161 23.3651C239.161 23.8887 239.033 24.3494 238.778 24.7472C238.523 25.1416 238.155 25.4498 237.675 25.6719C237.194 25.8906 236.617 26 235.944 26H232.335V18.3636H234.358V24.3345H235.944C236.299 24.3345 236.591 24.245 236.819 24.0661C237.048 23.8871 237.164 23.6584 237.167 23.38C237.164 23.085 237.048 22.8447 236.819 22.6591C236.591 22.4702 236.299 22.3757 235.944 22.3757H233.662V20.7102ZM244.429 23.206L247.178 18.3636H249.267V26H247.248V21.1428L244.509 26H242.406V18.3636H244.429V23.206ZM255.579 21.3366V23.0021H251.592V21.3366H255.579ZM252.288 18.3636V26H250.264V18.3636H252.288ZM256.906 18.3636V26H254.898V18.3636H256.906ZM257.083 20.0291V18.3636H264.003V20.0291H261.542V26H259.524V20.0291H257.083ZM267.794 26.1491C267.008 26.1491 266.332 25.9901 265.765 25.6719C265.202 25.3504 264.768 24.8963 264.463 24.3097C264.158 23.7197 264.005 23.022 264.005 22.2166C264.005 21.4311 264.158 20.7417 264.463 20.1484C264.768 19.5552 265.197 19.0928 265.75 18.7614C266.307 18.4299 266.96 18.2642 267.709 18.2642C268.213 18.2642 268.682 18.3454 269.116 18.5078C269.554 18.6669 269.935 18.9072 270.26 19.2287C270.588 19.5502 270.843 19.9545 271.025 20.4418C271.207 20.9257 271.299 21.4924 271.299 22.142V22.7237H264.85V21.4112H269.305C269.305 21.1063 269.239 20.8362 269.106 20.6009C268.974 20.3655 268.79 20.1816 268.554 20.049C268.322 19.9131 268.052 19.8452 267.744 19.8452C267.422 19.8452 267.137 19.9197 266.889 20.0689C266.644 20.2147 266.451 20.4119 266.312 20.6605C266.173 20.9058 266.102 21.1792 266.098 21.4808V22.7287C266.098 23.1065 266.168 23.433 266.307 23.7081C266.45 23.9832 266.65 24.1953 266.909 24.3445C267.167 24.4936 267.474 24.5682 267.828 24.5682C268.064 24.5682 268.279 24.535 268.475 24.4688C268.67 24.4025 268.838 24.303 268.977 24.1705C269.116 24.0379 269.222 23.8755 269.295 23.6832L271.254 23.8125C271.154 24.2831 270.951 24.6941 270.642 25.0455C270.337 25.3935 269.943 25.6652 269.459 25.8608C268.979 26.053 268.423 26.1491 267.794 26.1491ZM271.981 28.8636V18.3636H274.069V19.6463H274.163C274.256 19.4408 274.39 19.232 274.566 19.0199C274.745 18.8045 274.977 18.6255 275.262 18.483C275.55 18.3371 275.908 18.2642 276.336 18.2642C276.893 18.2642 277.406 18.41 277.877 18.7017C278.348 18.9901 278.724 19.4259 279.006 20.0092C279.287 20.5893 279.428 21.3168 279.428 22.1918C279.428 23.0436 279.291 23.7628 279.016 24.3494C278.744 24.9328 278.373 25.3752 277.902 25.6768C277.435 25.9751 276.911 26.1243 276.331 26.1243C275.92 26.1243 275.57 26.0563 275.282 25.9205C274.997 25.7846 274.763 25.6139 274.581 25.4084C274.399 25.1996 274.259 24.9891 274.163 24.777H274.099V28.8636H271.981ZM274.054 22.1818C274.054 22.6359 274.117 23.032 274.243 23.37C274.369 23.7081 274.551 23.9716 274.79 24.1605C275.028 24.3461 275.318 24.4389 275.66 24.4389C276.004 24.4389 276.296 24.3445 276.535 24.1555C276.773 23.9633 276.954 23.6982 277.077 23.3601C277.203 23.0187 277.266 22.6259 277.266 22.1818C277.266 21.741 277.204 21.3532 277.082 21.0185C276.959 20.6837 276.778 20.4219 276.54 20.233C276.301 20.044 276.008 19.9496 275.66 19.9496C275.315 19.9496 275.023 20.0407 274.785 20.223C274.549 20.4053 274.369 20.6638 274.243 20.9986C274.117 21.3333 274.054 21.7277 274.054 22.1818ZM285.455 21.3366V23.0021H281.468V21.3366H285.455ZM282.164 18.3636V26H280.14V18.3636H282.164ZM286.782 18.3636V26H284.774V18.3636H286.782ZM291.205 26.1491C290.42 26.1491 289.744 25.9901 289.177 25.6719C288.614 25.3504 288.179 24.8963 287.874 24.3097C287.569 23.7197 287.417 23.022 287.417 22.2166C287.417 21.4311 287.569 20.7417 287.874 20.1484C288.179 19.5552 288.609 19.0928 289.162 18.7614C289.719 18.4299 290.372 18.2642 291.121 18.2642C291.625 18.2642 292.094 18.3454 292.528 18.5078C292.965 18.6669 293.346 18.9072 293.671 19.2287C293.999 19.5502 294.255 19.9545 294.437 20.4418C294.619 20.9257 294.71 21.4924 294.71 22.142V22.7237H288.262V21.4112H292.717C292.717 21.1063 292.65 20.8362 292.518 20.6009C292.385 20.3655 292.201 20.1816 291.966 20.049C291.734 19.9131 291.464 19.8452 291.156 19.8452C290.834 19.8452 290.549 19.9197 290.301 20.0689C290.055 20.2147 289.863 20.4119 289.724 20.6605C289.585 20.9058 289.513 21.1792 289.51 21.4808V22.7287C289.51 23.1065 289.58 23.433 289.719 23.7081C289.861 23.9832 290.062 24.1953 290.32 24.3445C290.579 24.4936 290.886 24.5682 291.24 24.5682C291.475 24.5682 291.691 24.535 291.886 24.4688C292.082 24.4025 292.249 24.303 292.389 24.1705C292.528 24.0379 292.634 23.8755 292.707 23.6832L294.666 23.8125C294.566 24.2831 294.362 24.6941 294.054 25.0455C293.749 25.3935 293.355 25.6652 292.871 25.8608C292.39 26.053 291.835 26.1491 291.205 26.1491ZM294.803 20.0291V18.3636H301.724V20.0291H299.263V26H297.244V20.0291H294.803Z" fill="#151515"></path></svg> 