<?xml version="1.0" encoding="UTF-8"?> <svg xmlns="http://www.w3.org/2000/svg" width="500" height="85" viewBox="0 0 500 85" fill="none"><mask id="mask0_410_148" style="mask-type:luminance" maskUnits="userSpaceOnUse" x="0" y="0" width="160" height="80"><path d="M159.778 79.8068V0L-0.000228882 0V79.8068L159.778 79.8068Z" fill="white"></path></mask><g mask="url(#mask0_410_148)"><path d="M70.3224 46.0526C70.3224 46.0526 63.8732 55.3435 52.7577 53.4352C52.7577 53.4352 59.6427 49.6187 58.2319 46.2179C56.8211 42.8171 52.4254 42.3196 45.5405 41.5733C45.5405 41.5733 52.1767 35.1857 62.5459 37.094C62.5459 37.094 60.3889 32.6147 57.0717 30.3742C57.0717 30.3742 63.3339 29.7931 70.3224 36.927C70.3224 36.927 68.9334 20.8345 52.0115 19.589C35.0895 18.3452 30.5431 29.9311 22.9791 30.3723C22.9791 30.3723 30.278 34.0219 36.9143 31.6996C36.9143 31.6996 29.9458 39.0822 19.66 37.5062C9.37426 35.9302 5.80649 36.1335 0 41.5661C0 41.5661 5.43791 39.2692 15.2624 46.2996C25.481 53.6114 35.2257 50.9332 36.7763 50.4375C35.636 50.8406 30.2998 53.0086 28.3226 58.9422C28.3226 58.9422 30.8481 55.2673 40.7235 58.0997C52.1531 61.3771 63.5827 63.387 70.3224 46.049V46.0526Z" fill="#FF0000"></path><path d="M159.778 39.9052C158.071 37.9279 156.307 36.0069 154.48 34.1549C133.702 12.9931 105.606 1.35193e-06 74.6781 0C70.1154 -1.99435e-07 65.618 0.292325 61.1951 0.840663C60.2382 0.960499 59.2832 1.09486 58.3299 1.23648C59.3939 4.72079 60.3181 8.27228 61.097 11.8837C61.7851 15.0829 63.9149 17.7465 66.7837 19.3189C74.0554 23.3044 78.9885 31.0265 78.9885 39.9034C78.9885 48.7803 74.0209 56.5587 66.7056 60.5315C63.8042 62.1075 61.6744 64.8001 60.9445 68.0194C60.0857 71.8123 58.9799 76.4351 58.3281 78.5703C63.6698 79.3801 69.1277 79.8068 74.6763 79.8068C108.317 79.8068 138.606 64.4406 159.776 39.9052H159.778ZM101.495 38.9611C101.495 38.7014 101.506 38.4436 101.523 38.1894C101.528 38.1077 101.535 38.0278 101.543 37.9461C101.557 37.77 101.575 37.5938 101.599 37.4195C101.61 37.3306 101.623 37.2416 101.635 37.1545C101.662 36.9711 101.697 36.7913 101.733 36.6097C101.746 36.5426 101.757 36.4754 101.771 36.4082C101.822 36.1776 101.88 35.9506 101.944 35.7273C101.971 35.6329 102 35.5421 102.029 35.4495C102.073 35.3097 102.118 35.1699 102.165 35.0337C102.202 34.932 102.238 34.8304 102.276 34.7305C102.327 34.598 102.381 34.469 102.436 34.3401C102.476 34.2475 102.514 34.1531 102.556 34.0605C102.648 33.859 102.745 33.6611 102.848 33.4668C102.893 33.3796 102.944 33.2961 102.992 33.2108C103.061 33.0873 103.131 32.9657 103.204 32.8458C103.264 32.7478 103.326 32.6497 103.389 32.5535C103.444 32.4718 103.498 32.3901 103.553 32.3084C103.618 32.214 103.685 32.1195 103.752 32.0269C103.814 31.9416 103.879 31.8599 103.943 31.7764C104.01 31.6892 104.077 31.6021 104.148 31.5186C104.219 31.4332 104.292 31.3515 104.364 31.268C104.433 31.1881 104.502 31.1082 104.573 31.0319C104.655 30.9448 104.738 30.8613 104.822 30.7759C104.96 30.6361 105.1 30.5018 105.243 30.3692C107.189 28.588 109.74 27.5041 112.536 27.5041C116.415 27.5041 119.83 29.5794 121.798 32.7224C122.924 34.5181 123.581 36.6588 123.581 38.9647C123.581 43.1335 121.437 46.7794 118.23 48.7858C118.232 48.7839 118.236 48.7821 118.238 48.7803C118.049 48.8983 117.856 49.0109 117.66 49.118C117.613 49.1434 117.566 49.1689 117.519 49.1943C117.362 49.276 117.206 49.3541 117.047 49.4285C116.996 49.4521 116.945 49.4775 116.892 49.5011C116.696 49.5883 116.496 49.67 116.295 49.7463C116.239 49.7681 116.18 49.7862 116.124 49.8062C115.972 49.8606 115.816 49.9133 115.659 49.9605C115.587 49.9823 115.512 50.0041 115.438 50.0259C115.271 50.0731 115.104 50.1148 114.933 50.1548C114.884 50.1657 114.835 50.1802 114.786 50.1893C114.572 50.2347 114.354 50.2746 114.134 50.3073C114.071 50.3164 114.007 50.3236 113.944 50.3327C113.773 50.3545 113.602 50.3745 113.432 50.3872C113.364 50.3926 113.297 50.3981 113.23 50.4035C112.999 50.4181 112.769 50.429 112.535 50.429C106.439 50.429 101.494 45.2996 101.494 38.9683L101.495 38.9611Z" fill="#FF0000"></path></g><path d="M223.675 11.751C229.267 11.751 234.3 13.0026 238.774 15.5058C243.3 18.0091 246.842 21.4709 249.399 25.8916C251.955 30.2588 253.234 35.1855 253.234 40.6713C253.234 46.157 251.955 51.1102 249.399 55.5309C246.842 59.8982 243.3 63.3335 238.774 65.8367C234.3 68.34 229.267 69.5916 223.675 69.5916C218.669 69.5916 214.088 68.6062 209.934 66.6356C205.78 64.6117 202.344 61.8155 199.628 58.2472C196.964 54.6254 195.261 50.4978 194.515 45.8642H187.165V68.6329H174.303V12.7097H187.165V34.6795H194.675C195.526 30.2056 197.284 26.2378 199.948 22.7758C202.664 19.2607 206.072 16.5444 210.173 14.627C214.275 12.7097 218.774 11.751 223.675 11.751ZM223.675 58.5667C226.763 58.5667 229.559 57.821 232.063 56.3298C234.567 54.8386 236.537 52.7347 237.975 50.0185C239.413 47.3022 240.132 44.1865 240.132 40.6713C240.132 37.1561 239.413 34.0404 237.975 31.3241C236.537 28.6078 234.567 26.504 232.063 25.0128C229.559 23.5215 226.763 22.7758 223.675 22.7758C220.586 22.7758 217.79 23.5215 215.286 25.0128C212.782 26.504 210.813 28.6078 209.375 31.3241C207.937 34.0404 207.218 37.1561 207.218 40.6713C207.218 44.1865 207.937 47.3022 209.375 50.0185C210.813 52.7347 212.782 54.8386 215.286 56.3298C217.79 57.821 220.586 58.5667 223.675 58.5667Z" fill="#212121"></path><path d="M267.314 12.71H312.451V23.0158H280.176V34.52H295.675C302.44 34.52 307.578 35.9314 311.093 38.7542C314.663 41.5771 316.446 45.6515 316.446 50.9774C316.446 56.5698 314.476 60.9105 310.534 63.9996C306.594 67.0886 301.027 68.6332 293.837 68.6332H267.314V12.71ZM293.118 59.0464C296.421 59.0464 298.95 58.4072 300.708 57.129C302.465 55.7975 303.344 53.8802 303.344 51.3769C303.344 46.4769 299.936 44.027 293.118 44.027H280.176V59.0464H293.118Z" fill="#FF0000"></path><path d="M368.397 25.6519V61.4427C368.397 69.3252 366.4 75.1839 362.406 79.0186C358.411 82.8533 352.605 84.7707 344.99 84.7707C340.941 84.7707 337.106 84.2647 333.486 83.2528C329.916 82.2409 326.908 80.7762 324.458 78.8588L329.412 69.9111C331.222 71.4023 333.431 72.5742 336.042 73.4263C338.652 74.2784 341.288 74.7045 343.951 74.7045C348.106 74.7045 351.141 73.7458 353.059 71.8285C354.976 69.9111 355.935 66.9819 355.935 63.0405V61.6025C354.337 63.2003 352.445 64.4254 350.263 65.2775C348.078 66.1296 345.734 66.5557 343.232 66.5557C337.586 66.5557 333.112 64.9579 329.811 61.7623C326.508 58.5135 324.858 53.6667 324.858 47.2222V25.6519H337.321V45.3848C337.321 52.3619 340.222 55.8504 346.029 55.8504C349.01 55.8504 351.407 54.8917 353.219 52.9744C355.029 51.0038 355.935 48.101 355.935 44.2663V25.6519H368.397Z" fill="#FF0000"></path><path d="M400.635 69.2724C396.054 69.2724 391.927 68.3404 388.252 66.4763C384.63 64.5589 381.781 61.9225 379.704 58.5671C377.679 55.2117 376.668 51.4037 376.668 47.1428C376.668 42.8819 377.679 39.0739 379.704 35.7185C381.781 32.3631 384.63 29.7534 388.252 27.8892C391.927 25.9719 396.054 25.0132 400.635 25.0132C405.161 25.0132 409.103 25.9719 412.458 27.8892C415.866 29.7534 418.343 32.443 419.888 35.9582L410.221 41.151C407.984 37.2097 404.762 35.2391 400.555 35.2391C397.305 35.2391 394.616 36.3044 392.486 38.4348C390.354 40.5651 389.29 43.4679 389.29 47.1428C389.29 50.8178 390.354 53.7205 392.486 55.8509C394.616 57.9812 397.305 59.0465 400.555 59.0465C404.814 59.0465 408.037 57.0759 410.221 53.1346L419.888 58.4073C418.343 61.8159 415.866 64.479 412.458 66.3964C409.103 68.3138 405.161 69.2724 400.635 69.2724Z" fill="#FF0000"></path><path d="M482.424 25.0132C487.802 25.0132 492.064 26.611 495.207 29.8066C498.402 32.949 500 37.6891 500 44.0271V68.6333H487.537V45.9445C487.537 42.5359 486.818 40.0059 485.38 38.3549C483.995 36.6505 481.998 35.7984 479.389 35.7984C476.458 35.7984 474.141 36.7571 472.438 38.6744C470.733 40.5386 469.882 43.3348 469.882 47.0629V68.6333H457.419V45.9445C457.419 39.1805 454.703 35.7984 449.27 35.7984C446.394 35.7984 444.103 36.7571 442.4 38.6744C440.695 40.5386 439.844 43.3348 439.844 47.0629V68.6333H427.381V25.6523H439.284V30.6055C440.882 28.7947 442.825 27.4099 445.116 26.4512C447.458 25.4925 450.015 25.0132 452.786 25.0132C455.821 25.0132 458.563 25.6256 461.014 26.8507C463.463 28.0223 465.433 29.7534 466.926 32.0435C468.683 29.8066 470.893 28.0757 473.557 26.8507C476.273 25.6256 479.229 25.0132 482.424 25.0132Z" fill="#FF0000"></path></svg> 