<svg xmlns="http://www.w3.org/2000/svg" width="960" height="331" fill="none"><path fill="#BCBCBC" d="M228.348 320.56c-8.134 0-11.206-4.859-11.206-12.821s2.993-12.82 11.206-12.82c8.187 0 11.229 4.857 11.229 12.82 0 7.964-3.097 12.821-11.229 12.821m0-18.524c-2.302 0-2.711 2.095-2.711 5.695s.338 5.695 2.711 5.695c2.388 0 2.743-2.095 2.743-5.695 0-3.592-.417-5.695-2.743-5.695m31.939 5.408c2.65.615 4.056 2.587 4.056 5.933 0 4.661-3.127 7.183-11.686 7.183-4.596 0-7.683-.14-9.139-.37v-24.901c1.257-.14 6.279-.37 8.975-.37 8.077 0 10.954 2.571 10.954 6.377 0 2.54-.707 5.177-3.15 5.95zm-7.007-2.524c1.962 0 2.246-1.109 2.246-2.137 0-1.447-.779-2.054-2.208-2.054-.496 0-1.155.048-1.595.09v4.109h1.555zm-1.557 9.674s.99.14 1.689.14c2.35 0 2.443-1.57 2.443-1.892 0-.895-.541-2.03-2.034-2.03h-2.098zm13.88 10.832v-11.571l1.406-.23c2.264-1.167 3.286-2.12 4-18.335h17.399v18.37l2.106.198-.189 11.572h-7.623l-.298-5.245h-9.926l-.298 5.243zm10.02-11.718.093.197h4.488v-11.669h-2.475c-.37 7.361-1.117 10.666-2.106 11.472m17.119-7.647h9.823v5.86h-9.823zm21.751-10.771v7.506l-.283 4.833.283.098 6.247-12.429h6.797v24.903h-8.211v-6.097l.283-4.815-.283-.1-6.279 11.012h-6.774v-24.903zm34.763 6.869v18.031h-8.025v-6.081h-2.797v6.081h-8.023v-18.032h8.021v5.614h2.799v-5.613zm20.691 18.402h-1.634v6.501h-7.466v-6.501h-1.612c-5.421 0-8.233-3.632-8.233-9.385 0-5.645 2.827-9.385 8.187-9.385h1.658v-6.501h7.466v6.501h1.649c5.352 0 8.22 3.74 8.22 9.386 0 5.754-2.789 9.384-8.235 9.384m-9.564-12.431c-1.453 0-2.357.164-2.357 3.031 0 2.837.904 3.059 2.388 3.059h.489v-6.092zm8.37 6.09c1.555 0 2.397-.222 2.397-3.059 0-2.809-.904-3.031-2.382-3.031h-.518v6.09zm20.303 6.341c-6.161 0-9.775-2.941-9.775-9.385 0-6.927 4.526-9.385 9.775-9.385s9.823 2.459 9.823 9.386c0 6.435-3.662 9.384-9.823 9.384m0-11.947c-1.234 0-1.547.815-1.547 2.555 0 1.744.305 2.557 1.547 2.557 1.226 0 1.595-.813 1.595-2.555s-.361-2.556-1.595-2.556m517.178-204.751a13.5 13.5 0 0 1 1.721-.955 7.7 7.7 0 0 1 1.71-.558c.766-.15 1.769-.108 2.309.1q.81.309 1.337.855l.004-.001q.527.547.767 1.297.24.751.24 1.607 0 1.21-.333 2.477a13.6 13.6 0 0 1-2.299 4.735 10.8 10.8 0 0 1-1.774 1.845 8.4 8.4 0 0 1-2.057 1.253 5.7 5.7 0 0 1-2.224.457 3.2 3.2 0 0 1-1.082-.178 6 6 0 0 1-.901-.414l-1.471 6.02h2.732l-.301 1.239h-7.782l.12-.738.9-.236c.258-.079.537-.166.826-.265q.437-.147.828-.384l4.409-18.162h-1.618l-.159-.813 4.75-1.865zm-196.603-1.949q1.742 0 3.17.517a6.8 6.8 0 0 1 2.434 1.475l.002-.002a6.7 6.7 0 0 1 1.56 2.302c.37.895.557 1.92.557 3.023a8.2 8.2 0 0 1-.587 3.099 7.8 7.8 0 0 1-1.607 2.508 7.5 7.5 0 0 1-2.448 1.681 7.7 7.7 0 0 1-3.081.617q-1.892-.001-3.335-.59-1.443-.588-2.42-1.608a6.8 6.8 0 0 1-1.472-2.358 8 8 0 0 1-.496-2.817 7.93 7.93 0 0 1 2.238-5.575 7.5 7.5 0 0 1 2.449-1.668 7.6 7.6 0 0 1 3.037-.605m100.208-.07q2.675-.027 4.313.9 1.636.93 1.636 2.817 0 .855-.42 1.475c-.286.418-.66.77-1.096 1.033a6.2 6.2 0 0 1-1.548.664q-.87.252-1.773.37v.088q1.171 0 2.164.204.992.21 1.712.636v.003q.72.428 1.127 1.06.405.635.405 1.52 0 1.209-.571 2.064c-.379.573-.9 1.031-1.561 1.387q-.993.534-2.297.782-1.308.254-2.75.253-1.655-.001-2.809-.369c-.731-.229-1.44-.52-2.119-.871l-.329-4.13h1.441l1.352 3.125q.512.325 1.112.501.6.175 1.442.178 1.261.002 2.074-.753c.541-.503.811-1.223.811-2.109q0-1.33-.917-1.963t-2.358-.692h-1.503v-1.563h1.202q1.62 0 2.402-.679.782-.68.782-1.888 0-1.09-.676-1.755-.676-.662-1.998-.662-.632 0-1.112.104-.451.093-.871.279l-1.322 3.125h-1.414l.151-3.894q2.285-1.24 5.318-1.24m15.561-.026q1.504.002 2.614.522c.726.333 1.36.833 1.85 1.456q.735.934 1.112 2.231.376 1.293.406 2.811h-10.037q.093 1.313.541 2.304.453.994 1.158 1.65a4.6 4.6 0 0 0 1.636.976 6 6 0 0 0 1.984.32q.932 0 1.683-.28a8 8 0 0 0 1.293-.604l-.004.004a5.7 5.7 0 0 0 1.142-.913l.691.618q-.269.353-.75 1.031a8.3 8.3 0 0 1-1.263 1.373q-.78.692-1.937 1.193-1.157.5-2.779.5-1.896 0-3.232-.662-1.338-.665-2.194-1.697a6.7 6.7 0 0 1-1.246-2.271 8 8 0 0 1-.391-2.419q0-1.859.646-3.364c.4-.959.987-1.831 1.729-2.568a7.7 7.7 0 0 1 2.479-1.636 7.4 7.4 0 0 1 2.869-.575m108.072.319q1.262 0 1.547.945.288.947-.224 2.685l-.873 2.861h.15a73 73 0 0 1 1.608-2.241 21 21 0 0 1 1.787-2.095 9.6 9.6 0 0 1 1.939-1.533 4.1 4.1 0 0 1 2.088-.59q1.053 0 1.503.709.449.71-.031 2.536l-2.375 9.144.089.029c1.082-.396 1.66-.922 2.366-1.931l.571.23c-.776 1.705-1.7 2.873-2.908 3.605-.494.298-.953.427-1.352.427q-1.08 0-1.487-.783-.405-.782.014-2.315l2.225-8.143q.151-.532.061-.856-.091-.322-.541-.324-.6 0-1.291.501t-1.397 1.341a18 18 0 0 0-1.397 1.933 27.4 27.4 0 0 0-2.359 4.648q-.428 1.075-.705 2.197l-.301 1.24-2.553.649-.453-.413 3.157-11.83-2.523-.471.03-.236q.57-.531 1.171-.944a8 8 0 0 1 1.157-.665 3.05 3.05 0 0 1 1.307-.31m-191.534-.261q2.822 0 3.996 1.194 1.17 1.195 1.171 3.703v7.137q0 .65.225.827l.008.002q.226.178.886.178h1.29v1.033q-.616.287-1.262.5a9 9 0 0 1-1.187.353 5.4 5.4 0 0 1-1.219.147q-1.382 0-1.937-.736-.555-.733-.706-1.798h-.15q-.454.503-.874.974a5.7 5.7 0 0 1-.9.827 4.1 4.1 0 0 1-1.067.561q-.587.204-1.366.204a4.42 4.42 0 0 1-2.825-1.017 3.7 3.7 0 0 1-.918-1.195 3.6 3.6 0 0 1-.345-1.594c0-1.201.438-2.106 1.308-2.728q1.307-.931 3.529-1.461l3.486-.827v-1.201q0-1.581-.661-2.52-.659-.937-1.982-.939-.513 0-.994.133-.48.13-.661.249l-.059 3.014a4.6 4.6 0 0 1-.722.19 5.4 5.4 0 0 1-1.052.102q-.783 0-1.232-.37-.451-.367-.451-1.136 0-.589.541-1.267.541-.68 1.457-1.239a9.3 9.3 0 0 1 2.132-.931 8.6 8.6 0 0 1 2.541-.369m53.41 0q2.823 0 3.995 1.194 1.175 1.195 1.175 3.703v7.137q0 .65.225.827v.002q.228.178.886.178h1.293v1.033q-.616.287-1.262.5a9 9 0 0 1-1.187.353q-.645.148-1.216.147-1.385 0-1.938-.736-.553-.733-.706-1.798h-.151l-.871.974a5.8 5.8 0 0 1-.901.827 4.1 4.1 0 0 1-1.068.561q-.586.204-1.366.204a4.42 4.42 0 0 1-2.825-1.017 3.6 3.6 0 0 1-.944-1.257 3.6 3.6 0 0 1-.319-1.532c0-1.201.438-2.106 1.308-2.728q1.306-.931 3.53-1.461l3.485-.827v-1.201q0-1.583-.661-2.52-.66-.939-1.982-.939-.513 0-.993.133-.48.13-.66.249l-.062 3.014q-.21.086-.722.19a5.4 5.4 0 0 1-1.051.102q-.782 0-1.233-.37-.45-.367-.451-1.136.001-.589.541-1.267.544-.68 1.459-1.239a9.3 9.3 0 0 1 2.131-.931 8.6 8.6 0 0 1 2.541-.369m59.956 0q2.821 0 3.994 1.194 1.171 1.195 1.173 3.703v7.137q0 .57.171.775l.055.054q.228.178.888.178h1.293v1.033q-.616.287-1.263.5-.54.204-1.187.353-.645.148-1.216.147-1.385 0-1.938-.736-.553-.733-.706-1.798h-.151l-.869.974q-.42.474-.901.827a4.2 4.2 0 0 1-1.067.561q-.59.204-1.369.204a4.4 4.4 0 0 1-2.824-1.017 3.59 3.59 0 0 1-1.263-2.789q0-1.801 1.308-2.728 1.306-.931 3.529-1.461l3.485-.827v-1.201q0-1.581-.66-2.52-.659-.937-1.982-.939-.513 0-.993.133-.48.13-.662.249l-.06 3.014a4.6 4.6 0 0 1-.722.19 5.4 5.4 0 0 1-1.051.102q-.783 0-1.233-.37-.45-.367-.451-1.136 0-.589.54-1.267.543-.68 1.458-1.239a9.3 9.3 0 0 1 2.134-.931 8.6 8.6 0 0 1 2.54-.369m41.663.205q1.713 0 2.495.679.783.68.782 1.827 0 1.418-1.367 2.508t-3.742 1.623v.06q1.833.03 2.63.826c.258.251.461.55.598.879.137.33.205.683.199 1.039a4.4 4.4 0 0 1-.496 2.038v-.007a5.8 5.8 0 0 1-1.351 1.726 6.9 6.9 0 0 1-1.984 1.209 6.3 6.3 0 0 1-2.388.458q-1.083.002-1.894-.353a3.8 3.8 0 0 1-1.352-.974 4.2 4.2 0 0 1-.812-1.431 5.6 5.6 0 0 1-.27-1.755 9.9 9.9 0 0 1 .766-3.805 12.1 12.1 0 0 1 2.028-3.317 10.3 10.3 0 0 1 2.87-2.346c1.072-.589 2.146-.883 3.288-.883m-131.454.238v1.358l-2.012.471v10.589l2.012.502v1.357h-7.901v-1.359l1.892-.469v-3.865h-1.472l-2.518 3.646q-.341.542-.748 1.037-.332.407-.749.728a2.7 2.7 0 0 1-.836.436 4.3 4.3 0 0 1-1.044.167q-.602.027-.983-.119a3 3 0 0 1-.63-.312 1.5 1.5 0 0 1-.445-.482l4.529-5.81q-3.515-.679-3.515-3.453 0-1.267.584-2.123a4.24 4.24 0 0 1 1.563-1.371q.974-.516 2.252-.736h-.002a15.7 15.7 0 0 1 2.691-.222zm158.281-.178q1.17 0 2.026.444a4.1 4.1 0 0 1 1.398 1.149l.003-.005c.359.47.622 1.019.794 1.638a7 7 0 0 1 .257 1.902 10.5 10.5 0 0 1-.571 3.333 10.5 10.5 0 0 1-1.655 3.113 9.1 9.1 0 0 1-2.629 2.3q-1.548.9-3.501.9-1.144 0-1.983-.426a4.2 4.2 0 0 1-1.411-1.15 4.7 4.7 0 0 1-.843-1.681 7.4 7.4 0 0 1-.269-2.019q0-1.59.571-3.274a10.4 10.4 0 0 1 1.653-3.069 8.9 8.9 0 0 1 2.631-2.27q1.545-.883 3.529-.885m35.131-.263-3.397 12.562.089.032q.96-.296 1.788-1.107a9.3 9.3 0 0 0 1.365-1.666v.005l.603.234a7.3 7.3 0 0 1-.946 1.815 9.5 9.5 0 0 1-1.338 1.534q-.721.662-1.459 1.076-.736.412-1.306.412-1.056 0-1.459-.752-.406-.753.107-2.376l.931-3.125h-.121a44 44 0 0 0-1.216 1.798c-1.331 1.888-2.857 4.47-5.392 4.574-2.942-.037-2.723-3.492-2.044-5.985 1.39-5.1 5.838-9.488 10.057-8.84.628.094 1.107.434 1.271.782l.272-.975zm-233.389.48q3.092 0 4.85.797 1.756.798 1.758 2.476.001.8-.391 1.389a3.3 3.3 0 0 1-1.051.988 6.5 6.5 0 0 1-1.486.648q-.828.252-1.698.369v.06q1.11 0 2.133.204 1.023.207 1.773.65l.003-.003q.748.442 1.201 1.107.451.663.451 1.548 0 1.121-.601 1.889-.605.767-1.61 1.253-1.009.489-2.314.709t-2.718.221l-7.753-.029v-1.298l2.013-.413v-10.825l-2.015-.414v-1.296zm-37.661-3.98-2.434.56v6.814h8.714v-6.814l-2.404-.56V97.05h9.315v1.328l-2.494.56v15.841l2.586.532v1.325h-9.527v-1.331l2.524-.533v-7.131h-8.713v7.13l2.554.534v1.332h-9.555v-1.327l2.615-.531v-15.84l-2.526-.56V97.05h9.346zm100.507 4.145h-1.35l-1.593-3.952h-6.13v16.134l3.365.444v1.415h-10.456v-1.327l2.674-.532V98.87l-2.495-.563V96.98h13.131l2.856-.177zm58.861 5.311h-1.325l-1.592-3.866h-2.403v10.768l2.495.47v1.358h-8.745v-1.358l2.282-.47v-10.768h-2.403l-1.593 3.866h-1.32v-5.517h14.604zm39.385-5.664h-1.082l-.332-3.804h-6.61l-1.442 7.373h3.816l1.384-2.447h.99l-1.229 6.103h-1.113l-.301-2.269h-3.849l-1.591 7.963h7.183l2.735-3.982h1.14l-1.472 5.457h-15.474l.209-1.091 2.554-.619 3.245-16.076-2.282-.738.21-1.061h12.318l2.346-.119zm23.886 2.465c-.431-.56-1.43-.603-2.431-.407a4.7 4.7 0 0 0-.78.227 6 6 0 0 0-.812.386l-2.423 9.835q.332.592.828.945.496.357 1.096.357.96-.002 1.893-.902.933-.902 1.654-2.264t1.171-2.956q.451-1.598.451-2.988t-.647-2.233m-17.363 4.88q-.506.022-1.006.105-.407.073-.767.161a16.7 16.7 0 0 0-.36 3.54q0 1.33.435 1.992.435.663 1.096.663t1.201-.355c.371-.244.688-.56.933-.927q.39-.575.601-1.296.212-.726.212-1.462-.002-2.449-2.345-2.42m30.307-6.403q-.66 0-1.291.457-.634.458-1.189 1.224-.591.831-1.02 1.755a16.5 16.5 0 0 0-1.308 4.159 11.5 11.5 0 0 0-.181 1.933q0 .5.061 1.076.06.574.226 1.076.162.5.48.826.315.325.826.325.961 0 1.879-.928.918-.929 1.623-2.345c.483-.977.865-2 1.142-3.052q.433-1.64.435-3.055a22 22 0 0 0-.03-.914 5 5 0 0 0-.196-1.15 2.8 2.8 0 0 0-.496-.973c-.221-.275-.522-.414-.961-.414m-214.25.429q-1.473 0-2.239 1.385t-.767 3.54q0 .883.164 2.094.167 1.209.603 2.316.437 1.104 1.188 1.871t1.923.767q.719 0 1.277-.369c.389-.267.708-.621.93-1.033q.284-.498.464-1.138l.109-.438a9.5 9.5 0 0 0 .195-1.976q0-1.592-.285-2.89-.288-1.298-.797-2.213-.513-.912-1.218-1.415a2.63 2.63 0 0 0-1.547-.501m14.822 10.202q0 .765.616 1.106.614.34 1.516.34 1.172 0 2.015-.65v-.002c.561-.43.841-1.12.841-1.945q0-1.24-.887-1.829-.885-.589-2.328-.767h-1.773zm230.782-10.417c-2.651-1.696-5.677 3.535-6.545 6.015-.397 1.136-.699 2.613-.688 3.68.01.905.354 1.528 1.142 1.459 2.365-.21 5.622-6.314 6.351-8.474v.003l.421-1.357c-.018-.564-.272-1.063-.681-1.325m-213.659 6.686q-1.29.412-1.848.915-.553.502-.555 1.359-.001 1.06.675 1.621.677.56 1.547.562.783 0 1.307-.354.526-.354.798-.68v-4.012zm53.414 0q-1.292.412-1.849.915-.555.502-.555 1.359 0 1.06.676 1.621.676.562 1.546.562.783 0 1.308-.354c.296-.189.565-.418.797-.68v-4.012zm59.949 0q-1.293.412-1.847.915-.555.502-.556 1.359 0 1.06.677 1.621t1.548.562q.781 0 1.308-.354c.296-.189.565-.418.797-.68l-.003-.001v-4.011zm-96.336-6.164q-1.352.001-2.134.709c-.518.471-.779 1.2-.779 2.124q0 1.386.872 2.064.872.68 2.433.68h.928v-5.577zm138.096-.613q-.752 0-1.442.427-.693.425-1.307 1.193a8.8 8.8 0 0 0-1.097 1.798l-.002.002a14.6 14.6 0 0 0-.812 2.242 11 11 0 0 0 1.774-.412q1.804-.534 2.841-1.624t1.037-2.389q0-.531-.226-.885-.226-.35-.766-.352m-172.242 5.284q2.28-.118 3.259-.736.974-.62.975-1.711 0-.973-.99-1.593-.991-.62-3.244-.618zm100.586-5.082q-1.232 0-2.133 1.026h.003q-.904 1.025-1.113 2.749h5.861q0-.711-.137-1.397a3.9 3.9 0 0 0-.451-1.218 2.4 2.4 0 0 0-.811-.848q-.498-.312-1.219-.312M47.666 117.128h.505c.36 0 .682-.249 1.118-.864 1.027-1.448 1.199-2.453 1.348-7.873l.135-4.946h14.743v13.683h2.23v8.292h-5.273v-4.146H52.94v4.146h-5.273zm11.764-9.537h-3.651v3.077c0 2.398-.09 3.434-.406 4.697a48 48 0 0 0-.406 1.692c0 .039 1.004.071 2.232.071h2.23zm-24.32 13.977c-1.605-.442-2.935-1.256-4.09-2.505-1.895-2.046-2.72-4.951-2.286-8.035.63-4.464 3.693-7.512 8.097-8.058 3.38-.419 6.006.485 8.087 2.782 1.504 1.661 1.978 2.98 2.093 5.83l.09 2.229H34.836l.128.65c.34 1.74 1.813 2.874 3.732 2.874.876 0 1.159-.103 1.752-.635.39-.349.764-.815.832-1.036.116-.373.333-.402 2.967-.402h2.842l-.142.674c-.227 1.067-1.212 2.894-1.95 3.615-1.964 1.918-6.717 2.888-9.886 2.017m6.064-11.931c0-.885-.675-1.932-1.505-2.335-1.97-.955-4.5.245-4.908 2.328l-.129.656h6.542zm90.314 11.939c-4.615-1.27-7.316-5.638-6.588-10.653.643-4.429 3.734-7.44 8.171-7.96 3.404-.399 5.958.381 8.11 2.479 2.439 2.378 3.404 6.022 2.518 9.502-.87 3.414-3.658 6.112-6.968 6.743-1.517.29-3.978.237-5.243-.111m4.963-5.202c1.432-1.169 1.773-2.693 1.252-5.583-.408-2.26-1.35-3.2-3.208-3.2q-2.163 0-3.177 1.769c-.504.879-.534 1.072-.459 2.955.098 2.454.578 3.657 1.74 4.363 1.121.682 2.807.549 3.852-.304m-44.67 4.832c-1.936-.958-2.933-2.625-2.933-4.908 0-3.737 2.54-5.499 8.281-5.748l2.713-.117-.122-1.049c-.177-1.526-.803-2.104-2.282-2.104-1.017 0-1.185.067-1.719.677-.326.373-.592.816-.592.985 0 .258-.467.308-2.862.308h-2.862l.14-.778c.658-3.653 3.366-5.446 8.258-5.469 3.982-.018 6.134 1.06 7.306 3.658.451 1.002.468 1.245.527 7.823l.061 6.79h-5.903v-1.95l-.76.745c-1.258 1.231-1.943 1.486-4.21 1.567-1.814.064-2.134.019-3.042-.43m6.893-4.113c.649-.522 1.118-1.549 1.118-2.447v-.628h-1.71c-2.525 0-3.36.451-3.36 1.815 0 1.218.614 1.709 2.137 1.709.981 0 1.378-.098 1.815-.449m14.428 4.377c-1.276-.326-3.145-1.451-3.919-2.359-.818-.959-1.59-2.549-1.793-3.694l-.138-.777 5.217.019.407.848c.52 1.082 1.474 1.621 2.872 1.621 1.505 0 2.312-.965 1.875-2.245-.269-.791-.933-1.072-2.526-1.072h-1.309v-3.525h1.318c1.52 0 2.13-.412 2.13-1.439 0-.808-.65-1.256-1.82-1.255-1.107.001-2.091.56-2.536 1.441l-.32.631h-2.53c-2.911 0-2.849.058-2.114-1.951.794-2.168 2.926-4.048 5.233-4.613 1.221-.299 3.577-.222 5.405.175 1.377.299 3.285 1.355 3.845 2.127 1.676 2.311.891 5.339-1.611 6.218l-.754.265.835.136c.981.161 2.369 1.333 2.787 2.353 1.072 2.617-.842 5.589-4.304 6.682-1.467.463-5.115.705-6.25.414m54.729-.262c-1.255-.612-2.392-1.924-2.727-3.148-.341-1.244-.184-3.34.325-4.357.953-1.902 3.602-2.979 7.761-3.155l2.711-.115-.126-.941c-.23-1.717-1.091-2.452-2.631-2.246-.87.116-1.955 1.02-1.955 1.628 0 .345-.234.376-2.866.376h-2.865l.132-.847c.597-3.815 4.521-5.96 9.799-5.355 2.429.279 3.366.678 4.777 2.032 1.468 1.411 1.57 2.033 1.57 9.568v6.626h-5.882v-1.914l-.799.738c-1.346 1.242-1.931 1.458-4.17 1.538-1.81.064-2.139.018-3.054-.428m6.768-4.086c.732-.456 1.255-1.488 1.255-2.476v-.628h-1.694c-1.876 0-2.878.264-3.178.837-.343.654-.228 1.695.242 2.207.593.645 2.385.677 3.375.06m-28.967-13.677h5.882v6.634h5.274v-6.634h5.882v17.829h-5.882v-7.049h-5.274v7.256h-5.882zM0 96.811h8.858l2.189 6.271c1.204 3.449 2.255 6.346 2.336 6.438s.77-1.634 1.531-3.835a653 653 0 0 1 2.244-6.386l.86-2.384 8.756-.112v24.471h-6.896v-7.505c0-4.127-.076-7.416-.168-7.307s-1.392 3.485-2.887 7.504l-2.72 7.308h-2.279l-2.687-7.101c-1.479-3.905-2.767-7.24-2.864-7.411-.102-.18-.178 2.811-.182 7.1l-.006 7.412H0zm69.571 6.634h5.876l.108 10.536 5.408-10.536h5.849v17.829H80.93l-.006-5.235c-.005-4.208-.055-5.153-.254-4.82-.136.228-1.351 2.56-2.7 5.183l-2.453 4.768-5.946.115z"/><path fill="#BCBCBC" fill-rule="evenodd" d="M288.629 134.027a585 585 0 0 0-2.876-4.577 341 341 0 0 0-2.876-4.448v9.025h-2.694v-13.063h2.839a324 324 0 0 1 5.752 8.934v-8.934h2.694v13.063zm5.419-13.063h8.956v2.339h-6.153v2.832h5.461v2.338h-5.461v3.215h6.499v2.339h-9.302zm21.784 13.063a399 399 0 0 1-2.367-8.842q-.547 2.214-1.128 4.421-.585 2.215-1.202 4.421h-2.967a255 255 0 0 1-1.784-6.467q-.855-3.27-1.62-6.596h3.058q.456 2.546.965 5.079.501 2.502 1.074 4.988 1.214-4.744 2.312-9.519h2.73a403 403 0 0 0 2.294 9.318q.552-2.443 1.056-4.896.507-2.478.946-4.97h3.003a229 229 0 0 1-1.619 6.596 255 255 0 0 1-1.784 6.467zm11.677.274a9.5 9.5 0 0 1-2.121-.238 8 8 0 0 1-2.011-.749v-2.521q1.947 1.188 4.132 1.188 1.237 0 1.884-.42t.646-1.17q0-.565-.319-.886-.318-.32-.846-.511a12 12 0 0 0-1.183-.357 13.4 13.4 0 0 1-1.893-.584 5.5 5.5 0 0 1-1.384-.777 2.9 2.9 0 0 1-.855-1.077q-.292-.631-.292-1.508 0-1.242.628-2.137.629-.895 1.775-1.38 1.147-.483 2.73-.484 1.038 0 2.039.238a8.2 8.2 0 0 1 1.802.639v2.485a6.8 6.8 0 0 0-1.811-.767 7.7 7.7 0 0 0-2.029-.274q-1.111 0-1.721.383-.609.384-.609 1.096 0 .511.291.813t.828.494q.537.19 1.265.374.928.238 1.729.521a5.6 5.6 0 0 1 1.411.721q.61.439.947 1.115.336.677.336 1.662 0 1.298-.637 2.22-.636.923-1.838 1.407-1.202.483-2.894.484m11.877-1.907v-9.797h3.317q1.857 0 2.847.815t.99 2.336q0 1-.451 1.706-.45.706-1.311 1.069-.86.363-2.088.363h-1.597v3.508zm1.706-8.413v3.521h1.488q1.107 0 1.659-.425.553-.424.553-1.329c0-.904-.184-1.048-.553-1.336q-.553-.43-1.645-.431zm11.299 6.029q-.41.904-.833 1.459t-.955.802a2.9 2.9 0 0 1-1.229.246q-.328 0-.608-.048a3 3 0 0 1-.512-.13v-1.466q.232.083.465.116.231.035.546.035.464 0 .812-.213.348-.212.635-.692-.724-1.356-1.393-2.617-.654-1.233-1.297-2.473-.627-1.21-1.228-2.432h1.856q.465.973.854 1.781t.73 1.5q.322.655.648 1.309.308.616.608 1.206.57-1.411 1.126-2.83.567-1.445 1.127-2.966h1.815a191 191 0 0 1-1.583 3.802 258 258 0 0 1-1.584 3.611m8.156 2.589q-1.147 0-2.055-.349a4.2 4.2 0 0 1-1.536-1.007 4.4 4.4 0 0 1-.962-1.61q-.335-.953-.335-2.144 0-1.165.348-2.104a4.6 4.6 0 0 1 .997-1.61q.648-.671 1.563-1.027.915-.357 2.062-.357.819 0 1.536.185c.47.12.922.302 1.344.541v1.631a4.5 4.5 0 0 0-1.263-.63 4.8 4.8 0 0 0-1.453-.219q-1.052 0-1.796.424a2.8 2.8 0 0 0-1.14 1.233q-.396.81-.396 1.932 0 1.152.389 1.953.39.801 1.12 1.226t1.768.425a5.1 5.1 0 0 0 2.881-.863v1.589q-.601.37-1.407.576a6.7 6.7 0 0 1-1.665.205m8.687 0q-1.147 0-2.055-.349a4.2 4.2 0 0 1-1.536-1.007 4.4 4.4 0 0 1-.962-1.61q-.335-.953-.335-2.144 0-1.165.348-2.104a4.6 4.6 0 0 1 .997-1.61q.648-.671 1.563-1.027.915-.357 2.062-.357.819 0 1.536.185c.47.12.922.302 1.344.541v1.631a4.5 4.5 0 0 0-1.263-.63 4.8 4.8 0 0 0-1.454-.219q-1.05 0-1.795.424a2.8 2.8 0 0 0-1.14 1.233q-.396.81-.396 1.932 0 1.152.389 1.953.39.801 1.12 1.226t1.768.425a5.1 5.1 0 0 0 2.88-.863v1.589q-.6.37-1.406.576a6.7 6.7 0 0 1-1.665.205m6.635-4.59h-.505v4.385h-1.734v-9.797h1.734v3.973h.532a91 91 0 0 0 1.884-2q.887-.973 1.775-1.973h2.102q-1.051 1.164-2.136 2.315-1.098 1.164-2.205 2.316 1.185 1.27 2.362 2.549 1.194 1.296 2.362 2.617h-2.24q-.97-1.11-1.924-2.186-.99-1.112-2.007-2.199m14.567 4.385a100 100 0 0 0-.847-2.384h-4.273q-.219.59-.423 1.185-.205.596-.41 1.199h-1.829a192 192 0 0 1 1.918-5.029q.954-2.4 1.986-4.768h1.843a249 249 0 0 1 3.905 9.797zm-4.588-3.837h3.209q-.392-1.07-.792-2.137-.395-1.051-.806-2.097a98 98 0 0 0-.826 2.104q-.402 1.061-.785 2.13m13.243.014h-1.447a89 89 0 0 0-1.386 1.898q-.675.951-1.317 1.925h-1.966q.7-1.02 1.426-2.021.733-1.009 1.495-1.994-1.119-.288-1.713-1t-.594-1.795q0-.945.464-1.61.465-.664 1.338-1.021.875-.356 2.13-.356h3.277v9.797h-1.707zm0-1.384v-3.206h-1.461q-1.174 0-1.734.39-.56.391-.559 1.213c0 .822.186.952.559 1.212q.56.391 1.734.391zm11.714 5.412q-1.147 0-2.055-.349a4.15 4.15 0 0 1-1.536-1.007 4.4 4.4 0 0 1-.962-1.61q-.335-.953-.335-2.144 0-1.165.348-2.104a4.6 4.6 0 0 1 .997-1.61q.648-.671 1.563-1.027.915-.357 2.061-.357a6 6 0 0 1 1.536.185c.47.12.923.302 1.345.541v1.631a4.5 4.5 0 0 0-1.263-.63 4.8 4.8 0 0 0-1.454-.219q-1.051 0-1.795.424a2.8 2.8 0 0 0-1.14 1.233q-.396.81-.396 1.932 0 1.152.389 1.953.39.801 1.12 1.226t1.768.425a5.1 5.1 0 0 0 2.88-.863v1.589q-.6.37-1.406.576a6.7 6.7 0 0 1-1.665.205m10.8-.205v-8.29h-2.935q-.096 2.316-.321 3.926t-.621 2.596q-.397.987-.983 1.439-.588.452-1.42.452-.137 0-.287-.02a2.5 2.5 0 0 1-.341-.076v-1.452q.163.04.3.041.519 0 .888-.445.368-.446.614-1.439t.396-2.603.232-3.926h6.212v9.797zm8.614-2.384q-.41.904-.832 1.459-.424.555-.956.802a2.9 2.9 0 0 1-1.229.246q-.327 0-.607-.048a3 3 0 0 1-.512-.13v-1.466q.231.083.464.116.232.035.546.035.464 0 .812-.213.348-.212.635-.692-.697-1.307-1.392-2.617-.655-1.233-1.297-2.473-.627-1.21-1.229-2.432h1.857q.464.973.853 1.781a173 173 0 0 0 1.379 2.809q.301.604.607 1.206.571-1.411 1.127-2.83a154 154 0 0 0 1.126-2.966h1.816a186 186 0 0 1-1.584 3.802 258 258 0 0 1-1.584 3.611m9.025-2.001q-.875 1.09-1.727 2.199-.836 1.089-1.659 2.186h-2.13a223 223 0 0 1 2.041-2.61 557 557 0 0 1 2.041-2.556 221 221 0 0 1-1.891-2.309q-.93-1.151-1.836-2.322h2.048q.764 1 1.515 1.973a79 79 0 0 0 1.598 2h.505v-3.973h1.72v3.973h.532a79 79 0 0 0 1.598-2q.759-.985 1.515-1.973h2.02a142 142 0 0 1-3.727 4.618 149 149 0 0 1 2.062 2.555q1.01 1.281 2.048 2.624h-2.171q-.832-1.11-1.659-2.186a128 128 0 0 0-1.727-2.199h-.491v4.385h-1.72v-4.385zm9.297 4.385v-9.797h6.471v1.507h-4.792v2.398h1.952q.928 0 1.618.226.69.227 1.14.623.45.398.669.932.218.534.218 1.165 0 .918-.437 1.576-.437.657-1.262 1.014-.827.356-1.973.356zm1.679-1.329h1.761q1.024 0 1.57-.411t.546-1.179q0-1.644-2.089-1.644h-1.788zm13.78 1.329a85 85 0 0 0-.846-2.384h-4.273q-.219.59-.423 1.185-.205.596-.41 1.199h-1.829a188 188 0 0 1 1.918-5.029q.954-2.4 1.986-4.768h1.843a249 249 0 0 1 3.905 9.797zm-4.587-3.837h3.209a389 389 0 0 0-.792-2.137q-.395-1.051-.806-2.097a98 98 0 0 0-.826 2.104q-.402 1.061-.785 2.13" clip-rule="evenodd"/><path fill="#BCBCBC" d="M280.183 86.936v26.132h26.605V86.936zm18.551 18.445c-.457.634-1.102 1.113-1.944 1.461-.841.346-1.85.51-3.034.51h-5.966v-14.7h5.612c1.653 0 2.941.327 3.846.98.903.653 1.361 1.582 1.361 2.807 0 .694-.166 1.307-.489 1.817-.321.51-.81.919-1.444 1.225.883.286 1.559.746 2.027 1.368s.707 1.378.707 2.277c.01.867-.218 1.622-.676 2.255m-3.805-7.186q.624-.505.624-1.408-.002-1.747-2.422-1.747h-2.295v3.655h2.296c.791 0 1.383-.163 1.798-.5m-1.413 2.807h-2.681v3.971h2.649c.904 0 1.611-.163 2.1-.5.488-.337.727-.817.727-1.45-.01-1.357-.934-2.021-2.795-2.021m19.923-14.066v26.132h26.605V86.936zm18.551 18.445c-.457.634-1.102 1.113-1.943 1.461-.843.346-1.851.51-3.035.51h-5.966v-14.7h5.612c1.653 0 2.941.327 3.846.98.903.653 1.361 1.582 1.361 2.807 0 .694-.166 1.307-.489 1.817-.321.51-.81.919-1.444 1.225.883.286 1.559.746 2.026 1.368.468.623.707 1.378.707 2.277.011.867-.218 1.622-.675 2.255m-3.804-7.186q.624-.505.623-1.408c0-1.165-.81-1.747-2.421-1.747h-2.297v3.655h2.297c.79 0 1.382-.163 1.798-.5m-1.414 2.807h-2.68v3.971h2.649c.904 0 1.611-.163 2.099-.5s.728-.817.728-1.45c-.01-1.357-.935-2.021-2.796-2.021m19.924 12.066h26.605V86.936h-26.605zm19.112-6.645a9 9 0 0 1-2.151.796c-.845.198-1.71.298-2.578.296-1.195 0-2.276-.174-3.232-.51-.956-.347-1.767-.837-2.432-1.481-.665-.642-1.164-1.429-1.517-2.368q-.53-1.393-.53-3.154c0-1.143.187-2.175.55-3.093a6.7 6.7 0 0 1 1.58-2.368 7 7 0 0 1 2.484-1.511q1.45-.52 3.242-.521c.832 0 1.612.082 2.36.256a8.4 8.4 0 0 1 2.058.735v2.858a7 7 0 0 0-1.881-.858 7.7 7.7 0 0 0-2.131-.296c-1.029 0-1.902.184-2.629.561a3.95 3.95 0 0 0-1.674 1.633c-.384.715-.582 1.583-.582 2.604s.188 1.889.562 2.613a3.84 3.84 0 0 0 1.621 1.644c.707.378 1.569.561 2.587.561a8.2 8.2 0 0 0 4.293-1.184zM109 283c-7.172 0-13.604 3.146-18 8.127a24 24 0 0 0-8.13-6.009A23.9 23.9 0 0 0 72.998 283C59.744 283 49 293.734 49 306.977s10.744 23.978 23.999 23.978c7.17 0 13.602-3.146 18-8.128a24 24 0 0 0 8.131 6.009 23.9 23.9 0 0 0 9.87 2.119c13.251 0 23.999-10.734 23.999-23.978C132.999 293.734 122.253 283 109 283m-21.137 35.341a18.7 18.7 0 0 1-6.58 5.412A18.6 18.6 0 0 1 73 325.68c-10.338 0-18.718-8.373-18.718-18.703s8.38-18.702 18.718-18.702c6.06 0 11.443 2.877 14.864 7.339a18.6 18.6 0 0 1 3.856 11.363c0 4.278-1.44 8.214-3.856 11.364m31.078-2.252h-5.63l-3.669-8.964-3.589 8.964h-5.615l-5.817-18.223h6.415l2.728 9.15 3.402-9.15h5.021l3.402 9.15 2.726-9.15h6.443zm-45.24-18.703h-10.41v19.182h10.41c5.37 0 10.877-3.088 10.877-9.591 0-6.218-5.021-9.591-10.877-9.591m-.563 13.625H69.05v-8.152h4.09c3.716 0 5.043 2.072 5.043 4.076 0 1.976-1.317 4.076-5.044 4.076m479.293-99.209-6.462 3.792a1.23 1.23 0 0 0-.579 1.348l.172.679c1.14 3.946 3.557 7.811 6.354 10.607 4.362 4.354 10.39 7.422 17.992 7.404 6.706-.009 13.232-2.679 17.974-7.404a25.3 25.3 0 0 0 6.146-9.955c.072-.218.144-.426.208-.643l.172-.679a1.216 1.216 0 0 0-.58-1.348l-6.462-3.792a1.19 1.19 0 0 0-1.131-.046.85.85 0 0 0-.462.625c-.045.289-.135.842-.199 1.185-.199.987-.416 1.802-1.068 3.286-2.335 5.376-8.091 9.449-14.607 9.449-7.729 0-14.246-5.467-15.73-12.744-.1-.461-.136-.715-.217-1.185-.064-.38-.208-.543-.38-.625a1.21 1.21 0 0 0-1.141.046m0-3.023-6.462-3.793a1.23 1.23 0 0 1-.579-1.348l.172-.679c1.14-3.946 3.557-7.811 6.354-10.607 4.362-4.354 10.39-7.422 17.992-7.404 6.706.009 13.232 2.679 17.974 7.404a25.3 25.3 0 0 1 6.146 9.955c.072.218.144.426.208.643l.172.679a1.216 1.216 0 0 1-.58 1.348l-6.462 3.793a1.2 1.2 0 0 1-1.131.045.85.85 0 0 1-.462-.625 50 50 0 0 0-.199-1.185c-.199-.987-.416-1.801-1.068-3.286-2.335-5.376-8.091-9.449-14.607-9.449-7.729 0-14.246 5.467-15.73 12.744-.1.461-.136.715-.217 1.185-.064.38-.208.543-.38.625-.38.181-.797.154-1.141-.045"/><path fill="#BCBCBC" d="M561.845 199.266c-.145.2-.091.453.235.905l7.141 9.359c.226.298.434.525.462.778-.028.245-.236.471-.462.779l-7.141 9.358c-.253.353-.38.706-.235.896.19.271.679.027.995-.145l17.423-10.1.724-.444c.389-.262.389-.434 0-.679l-.724-.443-17.423-10.119c-.334-.199-.814-.416-.995-.145m37.415-4.986v14.833h3.973v-5.846h3.131v5.846h3.974V194.28h-3.974v5.611h-3.131v-5.611zm18.209 10.109c0 .118-.009.235-.018.344-.009.118-.036.226-.063.335-.145.425-.371.724-.661.932-.298.19-.606.299-.923.299q-.312 0-.624-.19c-.209-.127-.381-.335-.525-.625-.145-.289-.227-.67-.227-1.149.009-.498.109-.905.29-1.222.19-.317.443-.561.751-.742.308-.172.634-.299.987-.371.353-.064.688-.1 1.022-.118v2.507zm3.992 4.489a13 13 0 0 1-.19-1.584 26 26 0 0 1-.046-1.71v-5.34a11 11 0 0 0-.181-2.145 5.3 5.3 0 0 0-.715-1.919q-.531-.853-1.538-1.367c-.67-.343-1.557-.524-2.643-.524a10 10 0 0 0-1.864.181 9 9 0 0 0-1.53.416 6.4 6.4 0 0 0-1.068.489l.706 2.579c.416-.271.878-.462 1.358-.615a5.8 5.8 0 0 1 1.574-.209c.67.01 1.186.191 1.521.553.335.353.507.823.507 1.393v.326q-1.238 0-2.408.326a6.6 6.6 0 0 0-2.108.95 4.5 4.5 0 0 0-1.494 1.648q-.557 1.004-.57 2.416c.009.86.172 1.611.498 2.272a3.9 3.9 0 0 0 1.339 1.538c.57.371 1.213.561 1.946.571a4 4 0 0 0 1.765-.399 3.9 3.9 0 0 0 1.412-1.249h.054l.208 1.412h3.467zm36.337-7.982-.271.027c-.081 0-.19.009-.299.009-.479-.009-.905-.1-1.267-.29a2.23 2.23 0 0 1-.896-.787 2.04 2.04 0 0 1-.326-1.15c.009-.66.209-1.167.607-1.502.389-.335.941-.498 1.62-.507q.233 0 .425.027c.145.009.281.036.416.064v4.109zm3.756-6.408a16 16 0 0 0-1.81-.199 36 36 0 0 0-2.308-.064c-.678 0-1.33.036-1.954.118a10 10 0 0 0-1.711.353 4.6 4.6 0 0 0-1.267.579 4 4 0 0 0-1.267 1.331c-.29.506-.444 1.131-.453 1.864.009.697.172 1.294.48 1.783.317.498.733.887 1.249 1.186a5.7 5.7 0 0 0 1.701.642v.054a4.6 4.6 0 0 0-1.04.444 3.2 3.2 0 0 0-.733.579c-.317.362-.58.788-.806 1.285a12 12 0 0 0-.561 1.539q-.218.785-.407 1.448a6 6 0 0 1-.326.887 7 7 0 0 1-.417.742h4.091a5 5 0 0 0 .245-.525c.072-.181.135-.371.172-.561.145-.597.298-1.186.443-1.783a9.4 9.4 0 0 1 .561-1.593c.236-.461.525-.814.887-1.032.136-.081.29-.144.462-.208.172-.063.38-.09.615-.09h.362v5.783h3.792zm.96-.208v14.716h15.268l.19 4.054h2.969l.153-6.887-1.384-.063v-11.82h-3.847v11.494h-2.796V194.28h-3.874v11.494h-2.806V194.28z"/><path fill="#BCBCBC" d="M684.262 200.28c0-.362.045-.751.109-1.131.072-.38.172-.742.326-1.077.135-.326.325-.589.552-.797.226-.199.497-.307.814-.307.38.009.697.153.932.443.245.29.417.688.525 1.177.109.497.172 1.059.163 1.683h-3.421zm6.797 2.715c.045-.199.072-.452.091-.769.018-.317.027-.724.027-1.24-.009-2.19-.435-3.874-1.285-5.041-.851-1.168-2.046-1.765-3.603-1.774-1.104 0-2.09.317-2.95.932-.869.607-1.557 1.493-2.054 2.643-.507 1.149-.761 2.534-.779 4.154 0 1.512.236 2.797.697 3.856.471 1.05 1.149 1.864 2.064 2.425.896.552 2.009.833 3.312.833.751 0 1.475-.054 2.172-.172a10 10 0 0 0 1.81-.471l-.534-2.769c-.344.117-.742.226-1.212.326a8 8 0 0 1-1.53.144c-.57 0-1.086-.099-1.539-.307a2.27 2.27 0 0 1-1.086-.978c-.262-.452-.416-1.05-.434-1.792zm4.471-2.715c0-.362.045-.751.109-1.131.072-.38.181-.742.316-1.068.145-.326.326-.598.562-.797a1.2 1.2 0 0 1 .805-.307c.38.009.697.153.932.443.245.299.417.688.525 1.177q.163.746.163 1.683zm6.806 2.715c.045-.199.072-.452.1-.769q.027-.464.027-1.24c-.009-2.19-.444-3.874-1.285-5.041-.851-1.168-2.055-1.756-3.612-1.774q-1.658.012-2.95.932c-.86.607-1.548 1.493-2.054 2.643q-.759 1.724-.77 4.154c0 1.512.236 2.788.706 3.856.462 1.05 1.15 1.864 2.055 2.416q1.344.828 3.312.842a15 15 0 0 0 2.163-.172 10 10 0 0 0 1.819-.471l-.534-2.769a9 9 0 0 1-1.212.326 7.4 7.4 0 0 1-1.521.144c-.579 0-1.095-.099-1.538-.307a2.3 2.3 0 0 1-1.087-.978c-.271-.443-.416-1.05-.434-1.792zm-99.357 17.106h.915c.506 0 .977.063 1.384.199.417.136.742.344.987.634.244.289.371.651.38 1.104-.009.47-.136.841-.398 1.122a2.16 2.16 0 0 1-.987.588 4.7 4.7 0 0 1-1.303.172c-.172 0-.335 0-.507-.018a5 5 0 0 1-.461-.063v-3.738zm.028-5.892c.298-.063.624-.1.977-.1.697 0 1.249.145 1.656.426q.598.418.625 1.258c-.009.398-.118.733-.326.995a2.1 2.1 0 0 1-.86.607 3.3 3.3 0 0 1-1.176.208h-.896zm-3.702 12.074a34 34 0 0 0 3.53.162c.597 0 1.24-.018 1.927-.09a12 12 0 0 0 2.046-.362 6.8 6.8 0 0 0 1.828-.742 3.8 3.8 0 0 0 1.321-1.276q.503-.788.516-1.928c0-.579-.135-1.095-.398-1.566-.262-.48-.643-.869-1.149-1.195-.507-.316-1.123-.543-1.838-.66v-.064a4.1 4.1 0 0 0 1.367-.606c.416-.299.751-.67 1.014-1.122q.38-.693.38-1.602c0-.643-.145-1.186-.417-1.629a3 3 0 0 0-1.095-1.05 6 6 0 0 0-1.52-.607 11 11 0 0 0-1.702-.271 17 17 0 0 0-1.629-.073 44 44 0 0 0-2.199.082q-1.086.081-1.982.217zm27.233-8.635c.009-.362.045-.742.118-1.131.072-.38.181-.742.316-1.059.145-.326.326-.597.552-.796q.34-.302.815-.317c.38.009.697.154.932.443.245.29.417.688.525 1.177q.163.747.163 1.683zm6.806 2.715c.045-.199.072-.452.1-.769.009-.308.027-.724.027-1.231-.009-2.199-.444-3.873-1.286-5.041-.85-1.168-2.045-1.765-3.611-1.765q-1.658 0-2.95.923c-.869.607-1.548 1.494-2.055 2.643-.506 1.15-.76 2.525-.778 4.154 0 1.512.235 2.788.697 3.847.471 1.059 1.158 1.855 2.054 2.416q1.356.842 3.322.842c.751 0 1.475-.063 2.163-.181.697-.118 1.303-.271 1.81-.471l-.534-2.769a8 8 0 0 1-1.213.326c-.47.099-.977.145-1.529.145a3.8 3.8 0 0 1-1.539-.299 2.46 2.46 0 0 1-1.086-.978q-.407-.678-.434-1.792zm1.149 6.01h3.584l.154-5.159c.009-.47.018-1.004.036-1.593.019-.597.028-1.267.046-2.036.009-.769.027-1.656.036-2.67h.063c.082.38.181.833.281 1.358.108.515.208 1.049.317 1.62.108.561.217 1.122.325 1.656.1.534.2 1.014.29 1.439l1.186 5.159h3.222l1.149-5.096c.172-.769.335-1.547.498-2.317.163-.769.308-1.493.434-2.163.127-.67.236-1.213.317-1.647h.054c.028 1.032.046 1.937.064 2.706s.036 1.439.054 2.018c.009.58.027 1.096.045 1.557l.181 5.186h3.702l-.978-14.834h-4.941l-1.032 4.734c-.09.407-.172.832-.262 1.258-.091.434-.172.896-.281 1.393-.099.498-.208 1.068-.335 1.684h-.09a76 76 0 0 0-.38-1.693c-.109-.497-.227-.95-.317-1.375-.109-.426-.199-.851-.299-1.267l-1.095-4.734h-4.942zm24.645-8.155q-.15.028-.272.028a3 3 0 0 1-.298.009c-.471-.009-.896-.1-1.276-.299a2.2 2.2 0 0 1-.887-.787c-.218-.326-.326-.715-.335-1.15.009-.661.208-1.158.606-1.502.389-.335.932-.507 1.62-.507q.217 0 .435.027c.135.009.271.036.407.063zm3.765-6.407a16 16 0 0 0-1.81-.209 37 37 0 0 0-2.308-.063c-.679 0-1.33.036-1.955.118a9.7 9.7 0 0 0-1.701.353 4.9 4.9 0 0 0-1.286.579 4.1 4.1 0 0 0-1.258 1.33c-.298.516-.443 1.141-.452 1.865.009.706.172 1.294.48 1.792.307.489.733.887 1.249 1.185a5.6 5.6 0 0 0 1.701.643v.054a4.6 4.6 0 0 0-1.041.444 3 3 0 0 0-.733.579 5.2 5.2 0 0 0-.814 1.285 13 13 0 0 0-.562 1.539c-.144.525-.28 1.014-.407 1.448a5.5 5.5 0 0 1-.751 1.62h4.091a7 7 0 0 0 .253-.516c.073-.181.136-.362.181-.57.145-.588.299-1.177.444-1.774a8 8 0 0 1 .57-1.584c.226-.47.516-.814.878-1.032.136-.072.289-.144.47-.208.172-.063.38-.09.616-.09h.362v5.774h3.792v-14.562zm-47.452 6.416c.1.019.19.028.281.028.081 0 .172.009.289.009.48-.009.896-.1 1.276-.299.371-.19.67-.443.887-.787.218-.326.335-.715.335-1.15-.009-.661-.208-1.167-.597-1.502-.398-.335-.941-.507-1.629-.507-.145 0-.29.009-.426.027a3 3 0 0 0-.407.063v4.118zm-3.756-6.407a16 16 0 0 1 1.81-.209 37 37 0 0 1 2.308-.072q1.019.002 1.955.127a11 11 0 0 1 1.711.353c.515.154.932.344 1.276.579q.817.557 1.267 1.33c.298.516.452 1.141.452 1.865-.009.697-.172 1.756-.479 2.244-1.367 2.58-3.946 2.743-6.499 2.399v5.946h-3.801zm33.08-5.63c-1.023 0-2.064-1.538-2.064-4.489 0-3.267 1.249-4.489 2.037-4.489 1.104 0 1.936 1.873 1.936 4.362 0 3.648-1.239 4.616-1.909 4.616m.108-11.91c-3.692 0-6.073 2.896-6.073 7.376 0 4.67 2.182 7.457 5.838 7.457 2.226 0 5.973-.995 5.973-7.665 0-4.49-2.145-7.168-5.738-7.168m-17.006 0c-3.113 0-6.217 2.507-6.217 7.774 0 4.272 2.253 6.942 5.892 7.059 1.538.055 3.294-.615 3.294-.615l-.67-2.86s-.543.272-1.593.308c-2.271.072-3.059-2.326-3.059-4.091 0-2.543.905-4.037 2.978-4.191.516-.045 1.81-.081 1.81-.081h2v11.286h3.874v-11.286h3.059v-3.303zM412.12 220.558s-.604.691-1.411 1.177c-1.478.9-3.023 1.384-4.702 1.591-.537.069-1.008.069-1.545.069-6.381 0-9.673-4.151-9.673-9.827 0-7.959 6.382-9.827 10.546-9.827 1.209 0 2.417.207 3.627.76 1.813.831 2.955 2.56 2.955 4.361s-1.008 3.114-2.955 3.114c-1.143 0-1.948-.484-2.351-1.453-.201-.484-.201-.97-.268-1.454-.068-.484-.068-.969-.269-1.453-.268-.831-1.008-1.315-1.746-1.246-.537 0-1.008.207-1.411.691-.537.623-.738 1.454-.738 2.284-.135 2.699.134 5.398 1.477 7.82 1.076 2.007 2.956 3.184 4.904 3.184.537 0 1.142-.069 1.679-.277a7.6 7.6 0 0 0 1.679-.831zm-115.4-1.523s.201 1.108.268 1.315c-.067.139-.47.484-.537.553-1.612 1.316-4.97 2.422-6.985 2.422-6.382 0-10.21-3.46-10.21-9.827 0-6.298 4.903-9.758 9.673-9.758 4.165 0 7.658 2.214 7.658 7.266v.691l-9.203 3.875.268.623c.47 1.108 1.075 2.145 2.149 2.976 1.68 1.315 4.3 1.384 6.382.207.134-.069.268-.207.537-.345zm-9.874-5.329c.604-.276 2.283-1.038 2.417-1.107.672-.346.941-.623 1.008-1.177.067-.484 0-1.938 0-2.283-.134-1.8-.738-2.769-1.545-2.769-2.216 0-2.62 3.115-1.88 7.336m102.033-12.594c2.216 0 3.962-1.8 3.962-4.083s-1.813-4.083-3.962-4.083c-2.217 0-3.963 1.8-3.963 4.083s1.746 4.083 3.963 4.083M280.464 221.25v1.385h-9.74c-1.88-3.391-3.56-6.575-5.44-9.897-.067 0-.202-.069-.269-.069v6.021c0 1.869.604 2.56 2.418 2.56h.268v1.385h-13.635v-1.315c.47-.07.874-.07 1.344-.139.805-.207 1.343-.831 1.41-1.73v-16.055q0-.621-.402-1.038L254 199.867c.201-.069.403-.139.604-.277l9.941-4.221v3.115s.336-.692 1.008-1.385c.874-.83 2.284-1.453 4.097-1.453 2.485 0 4.904 1.384 6.18 3.391 1.008 1.592 1.545 3.391 1.545 5.19 0 6.091-5.105 8.72-9.404 8.72h-.403l-.067.207c1.21.415 2.687.554 3.896.554 1.142 0 2.35-.139 3.09-.277l3.56 6.575c.738 1.384 2.082 1.244 2.417 1.244m-15.65-16.54c0 3.322 0 5.951 2.082 5.951s2.082-2.699 2.082-5.952c0-3.322-.201-5.951-2.082-5.951s-2.082 2.631-2.082 5.952m115.734 16.471c-1.008-.069-1.545-.622-1.545-1.592v-24.774l-10.276 4.36s1.209 1.315 1.88 1.938q.303.31.403.83v17.024c0 .208 0 .484-.067.692-.135.969-.604 1.384-1.545 1.453h-.807v1.384h12.763v-1.384c-.269.069-.536.069-.806.069m13.166 0c-.941-.069-1.478-.622-1.545-1.592v-16.055l-10.21 4.361s1.21 1.315 1.881 1.937c.268.277.403.623.403 1.177v8.305c0 1.315-.605 1.938-1.613 1.938h-.806v1.384h12.763v-1.384c-.336-.07-.605-.07-.874-.07zm-49.303 0c-1.075-.069-1.612-.622-1.679-1.73v-15.986l-10.277 4.361s1.21 1.315 1.881 1.937q.303.31.403.831v6.852c0 1.107-.807 1.868-1.881 1.868-.941 0-1.746-.761-1.746-1.868v-14.049l-10.277 4.361s1.209 1.315 1.88 1.937q.403.415.403 1.039v7.059c0 2.699 1.545 4.706 3.963 5.19a9.2 9.2 0 0 0 1.88.207c2.217 0 4.097-.9 5.709-2.768.067-.139.202-.208.269-.346.067 0 .134.069.134.069v2.353h9.941v-1.385c-.134.069-.402.069-.604.069zm-25.659-13.98c1.008 1.592 1.477 3.598 1.545 5.744 0 2.699-.807 5.466-2.621 7.404-1.612 1.661-4.029 3.045-7.658 3.045-.738 0-1.477-.138-2.283-.345v4.151c0 1.315.537 1.869 1.814 1.938h.604v1.384H297.39v-1.315c.336 0 .671-.069 1.075-.069.807-.138 1.344-.623 1.344-1.454v-16.678c0-.484-.135-.831-.403-1.177-.671-.623-1.881-1.938-1.881-1.938l9.942-4.221v2.976l.134.07s.403-.761.874-1.246c1.343-1.246 2.687-1.592 4.165-1.592 2.35-.138 4.836 1.246 6.113 3.322zm-6.852 6.713c0-3.875-.201-7.059-2.082-7.059s-2.082 3.184-2.082 7.059 0 7.059 2.082 7.059 2.082-3.184 2.082-7.059m54.006-7.197c1.344 1.799 1.881 3.806 1.881 6.16 0 3.183-.874 5.881-3.292 8.028-1.545 1.384-3.895 2.421-7.254 2.421-1.612 0-3.224-.276-4.769-1.107a19 19 0 0 1-2.149-1.385c-.537.484-1.881 1.73-1.881 1.73H347.3v-20.346c0-.484-.134-.83-.403-1.177-.671-.622-1.88-1.937-1.88-1.937l10.277-4.361v11.35l.134.069s1.343-2.49 4.836-2.49a7.1 7.1 0 0 1 3.161.854 7.4 7.4 0 0 1 2.481 2.191m-6.448 7.197c0-3.875-.202-7.059-2.082-7.059-1.881 0-2.082 3.184-2.082 7.059s0 7.059 2.082 7.059c2.082-.07 2.082-3.184 2.082-7.059m504.458-6.93h-3.969v-16.172h5.809c1.295 0 2.953.155 4.314 1.341 1.084.935 1.611 2.237 1.611 3.954 0 1.581-.479 2.873-1.419 3.828-1.275 1.282-2.914 1.446-4.199 1.446h-2.157v5.594zm0-8.833h1.217c.403 0 1.333 0 1.937-.569.364-.357.565-.897.565-1.495s-.211-1.138-.565-1.466c-.528-.501-1.314-.568-2.004-.568h-1.141v4.088zm13.795 9.19c-1.764 0-3.029-.511-4.132-1.659-1.064-1.118-1.61-2.488-1.61-4.069 0-1.717.623-3.317 1.706-4.388.978-.964 2.339-1.495 3.835-1.495.978 0 2.301.242 3.279 1.341v-.984h3.719v10.888h-3.719v-1.042c-.739.935-1.774 1.408-3.087 1.408zm.681-8.409c-.681 0-1.371.27-1.831.733a2.56 2.56 0 0 0-.767 1.851c0 .907.374 1.495.69 1.833.479.501 1.227.8 1.975.8.652 0 1.285-.26 1.735-.704.374-.347.815-.964.815-1.919 0-.733-.278-1.417-.767-1.871-.556-.52-1.323-.713-1.86-.713zm21.494 11.061h-3.337v-3.009h-7.161v3.009h-3.336v-5.863h.105a2.5 2.5 0 0 0 1.409-.646c.834-.762.911-1.871.911-3.134v-4.253h9.808v8.023h1.601zm-9.012-5.873h3.691v-5.159h-2.646v1.909c0 1.08-.144 1.649-.249 1.996a3.2 3.2 0 0 1-.787 1.254zm22.222 2.864h-3.719v-5.95l-4.43 5.95h-3.422v-10.887h3.72v5.863l4.429-5.863h3.422zm8.005.357c-1.927 0-3.681-.636-4.803-1.755-1.035-1.022-1.658-2.536-1.658-4.05s.623-3.028 1.658-4.05c1.132-1.119 2.886-1.756 4.803-1.756 1.918 0 3.682.637 4.813 1.756 1.035 1.022 1.658 2.536 1.658 4.05s-.623 3.028-1.658 4.05c-1.131 1.119-2.886 1.755-4.813 1.755m0-8.457c-.757 0-1.39.241-1.879.733-.517.511-.767 1.138-.767 1.919s.25 1.417.767 1.919c.489.482 1.132.733 1.908.733.777 0 1.361-.241 1.86-.733.518-.511.767-1.138.767-1.919s-.249-1.418-.767-1.919c-.489-.482-1.122-.733-1.879-.733zm-54.118 32.536c-2.655 0-4.822-.79-6.432-2.353-1.649-1.572-2.56-3.751-2.56-6.123s.93-4.533 2.56-6.085c1.572-1.495 3.748-2.324 6.116-2.324 1.227 0 2.512.289 3.921.897l.067.029v4.619l-.201-.212c-1.055-1.1-2.301-1.659-3.701-1.659-1.294 0-2.377.405-3.211 1.205-.949.907-1.486 2.218-1.486 3.597 0 1.842.853 2.942 1.371 3.424.402.395 1.524 1.302 3.413 1.302 1.323 0 2.502-.531 3.623-1.611l.202-.193v4.581l-.067.029c-1.544.771-2.742.868-3.615.868zm12.07-.357h-6.711v-10.887h5.906c.661 0 1.908 0 2.761.723.604.521.911 1.244.911 2.17 0 .781-.211 1.331-.691 1.803a2.1 2.1 0 0 1-.613.463 3.4 3.4 0 0 1 1.285.704c.489.482.738 1.129.738 1.9 0 .858-.288 1.601-.834 2.141-.46.453-1.314.993-2.771.993zm-2.981-2.526h1.457c.288 0 .681 0 .968-.26.192-.164.297-.444.297-.753a.81.81 0 0 0-.297-.646c-.307-.26-.815-.26-1.112-.26h-1.313zm0-4.108h1.313c.192 0 .547-.029.805-.193.211-.154.307-.366.307-.694 0-.386-.191-.579-.268-.646-.173-.126-.575-.184-.892-.184h-1.265v1.727zm14.083 6.991c-1.927 0-3.681-.636-4.803-1.755-1.036-1.022-1.659-2.536-1.659-4.05s.623-3.028 1.659-4.05c1.131-1.119 2.886-1.755 4.803-1.755s3.681.636 4.812 1.755c1.036 1.022 1.659 2.536 1.659 4.05s-.623 3.028-1.659 4.05c-1.131 1.119-2.885 1.755-4.812 1.755m0-8.457c-.757 0-1.39.241-1.879.733-.518.511-.767 1.138-.767 1.919s.249 1.418.767 1.919c.489.482 1.131.733 1.908.733s1.361-.241 1.86-.733c.517-.511.766-1.138.766-1.919s-.249-1.418-.766-1.919c-.489-.482-1.122-.733-1.88-.733zm14.198 8.457c-1.937 0-3.384-.511-4.544-1.61-1.956-1.9-1.956-4.668-1.956-5.584 0-1.861.278-5.284 2.167-7.271 1.275-1.33 2.876-1.687 3.94-1.919l.863-.193c.959-.212 1.649-.356 2.013-.752a.9.9 0 0 0 .24-.588v-.116h3.298v.126c-.115 1.08-.643 2.208-1.333 2.864-.546.54-1.419.974-2.665 1.321l-1.457.405c-.911.251-1.946.53-2.637 1.147a3.36 3.36 0 0 0-1.045 1.968c.921-.926 2.129-1.379 3.691-1.379 1.726 0 3.241.549 4.276 1.533 1.035.993 1.639 2.459 1.639 4.002 0 1.707-.632 3.25-1.783 4.359-1.534 1.485-3.307 1.678-4.688 1.678zm-.029-8.428c-.968 0-1.582.453-1.86.733a2.73 2.73 0 0 0-.786 1.919c0 .714.278 1.369.767 1.851.278.27.892.733 1.927.733a2.58 2.58 0 0 0 1.745-.665c.556-.492.882-1.254.882-2.015 0-.656-.268-1.293-.767-1.804-.508-.501-1.15-.752-1.908-.752m14.198 8.428c-1.927 0-3.681-.636-4.812-1.755-1.036-1.022-1.659-2.536-1.659-4.05s.623-3.028 1.659-4.05c1.131-1.119 2.885-1.755 4.812-1.755s3.682.636 4.804 1.755c1.035 1.022 1.658 2.536 1.658 4.05s-.623 3.028-1.658 4.05c-1.132 1.119-2.886 1.755-4.804 1.755m0-8.457c-.757 0-1.39.241-1.879.733-.517.511-.767 1.138-.767 1.919s.25 1.418.767 1.919c.489.482 1.132.733 1.908.733.777 0 1.362-.241 1.86-.733.518-.511.767-1.138.767-1.919s-.249-1.418-.767-1.919c-.489-.482-1.122-.733-1.879-.733zm20.574 11.109h-3.336v-3.009h-7.162v3.009h-3.336v-5.863h.105a2.5 2.5 0 0 0 1.41-.646c.843-.762.911-1.871.911-3.134v-4.253h9.807v8.023h1.601zm-9.012-5.873h3.691v-5.159h-2.646v1.91c0 1.08-.144 1.649-.249 1.996a3.2 3.2 0 0 1-.786 1.253zm15.119 3.221c-1.764 0-3.03-.511-4.132-1.658-1.064-1.119-1.611-2.488-1.611-4.07 0-1.716.623-3.317 1.707-4.388.978-.964 2.339-1.494 3.834-1.494.978 0 2.301.241 3.279 1.34v-.983H952v10.887h-3.72v-1.051c-.738.935-1.773 1.408-3.087 1.408zm.68-8.409c-.68 0-1.371.27-1.831.733a2.57 2.57 0 0 0-.767 1.852c0 .906.374 1.494.7 1.832.48.501 1.218.8 1.975.8.652 0 1.285-.26 1.735-.704.374-.347.815-.964.815-1.919 0-.733-.278-1.417-.767-1.87-.556-.521-1.323-.714-1.86-.714zm-89.742-33.327c-5.896.694-7.545 6.847-11.974 12.151-5.925 7.097-14.707 3.452-14.707 3.452 5.925-.743 7.622-6.943 12.166-12.228 6.021-7.01 14.515-3.375 14.515-3.375m-21.35 10.405s7.372-5.892 4.189-14.571c-2.397-6.548-7.008-11.186-4.563-16.654 0 0-7.296 5.979-4.257 14.571 2.32 6.577 7.075 11.186 4.631 16.654m-.422-1.253s.709-9.557-7.449-13.183c-6.375-2.825-13.067-2.555-15.358-8.091 0 0-.911 9.489 7.746 13.164 6.414 2.719 12.76 2.574 15.051 8.11zm6.855 16.036 3.863-7.849h-20.43v7.849zm-13.921 23.009h1.4l9.501-21.958h-10.891v21.958zM53.686 203.773c0-1.934-1.005-3.27-2.752-3.808 1.225-.559 2.129-1.695 2.129-3.19 0-2.692-1.888-3.709-5.282-3.709h-6.407v14.954H47.6c4.178 0 6.085-1.555 6.085-4.247m-4.78-6.281c0 .798-.583 1.296-1.627 1.296H45.39v-2.352h1.586c1.326 0 1.928.319 1.928 1.056m-1.627 4.187c1.546 0 2.249.499 2.249 1.436 0 1.077-.743 1.515-2.43 1.515H45.39v-2.951zm10.633 6.341 1.025-2.692h5.584l1.023 2.692h4.078l-5.885-14.954H59.88l-5.885 14.954zm2.23-5.882 1.586-4.167 1.587 4.167zm8.29 5.882h4.76l5.06-6.261v6.261h4.018v-6.261l5.061 6.261h4.82l-6.447-7.856 6.046-7.098h-4.84l-4.64 5.882v-5.882h-4.017v5.882l-4.64-5.882h-4.84l6.066 7.138zm34.558 0h4.017v-14.954h-4.017v5.483h-5.623v-5.483H93.35v14.954h4.017v-5.882h5.623zm18.535-5.124c0-3.689-2.049-4.985-5.905-4.985h-2.189v-4.845h-4.017v14.954h6.206c3.856 0 5.905-1.575 5.905-5.124m5.201 5.124v-14.954h-4.016v14.954zm-11.468-6.62c1.487 0 2.049.439 2.049 1.515 0 1.157-.542 1.616-2.049 1.616h-1.827V201.4zm13.887 6.62h11.468v-3.589h-7.451v-2.473h6.045v-3.19h-6.045v-2.213h7.451v-3.489h-11.468zm-77.93 19.938h4.017v-14.954h-4.218l-5.623 9.212v-9.212h-4.017v14.954h4.218l5.623-9.212zm16.843-6.201c-.402 1.655-1.427 2.612-3.274 2.612-2.049 0-3.435-1.436-3.435-3.888 0-2.432 1.386-3.888 3.435-3.888 1.647 0 2.852.957 3.273 2.592h4.278c-.562-3.868-3.575-6.38-7.551-6.38-4.419 0-7.652 3.07-7.652 7.676 0 4.626 3.233 7.676 7.652 7.676 3.976 0 7.01-2.492 7.551-6.4zm18.48-8.753H73.443v3.39h4.539v11.564h4.017v-11.564h4.539zm8.156-.199c-4.418 0-7.652 3.07-7.652 7.676 0 4.626 3.234 7.676 7.652 7.676 4.399 0 7.632-3.05 7.632-7.676 0-4.606-3.233-7.676-7.632-7.676m0 3.788c2.029 0 3.415 1.456 3.415 3.888 0 2.452-1.386 3.888-3.415 3.888-2.048 0-3.434-1.436-3.434-3.888 0-2.432 1.386-3.888 3.434-3.888m9.541 11.365h4.017v-5.144h2.189c3.415 0 5.905-1.276 5.905-4.805 0-3.709-2.048-5.005-5.905-5.005h-6.206zm5.845-11.465c1.486 0 2.048.439 2.048 1.516 0 1.156-.542 1.615-2.048 1.615h-1.828v-3.131zm17.785 11.465h4.017v-14.954h-4.217l-5.624 9.212v-9.212h-4.017v14.954h4.218l5.623-9.212zm16.26 0h4.016v-14.954h-4.217l-5.624 9.212v-9.212h-4.017v14.954h4.218l5.624-9.212z"/><path fill="#BCBCBC" fill-rule="evenodd" d="M0 190.574h30.127v39.876H0zm11.458 23.228.904-7.278h4.552l.904 7.278v9.171h-6.36zm0-10.102v-5.649h6.36v5.649z" clip-rule="evenodd"/><path fill="#BCBCBC" d="m507.3 297.361-9.862 11.89-9.861-11.891-2.261 1.685 10.295 12.408-10.295 12.407 2.259 1.683 9.862-11.887 9.863 11.887 2.26-1.683-10.296-12.407 10.296-12.41zm68.304-.296c-.553 0-1.057.302-1.295.772l-13.177 26.055 2.592 1.177 11.88-23.494 11.879 23.492 2.592-1.178-13.175-26.052a1.4 1.4 0 0 0-.531-.563 1.5 1.5 0 0 0-.762-.209zm81.216.772a1.4 1.4 0 0 0-.531-.564 1.49 1.49 0 0 0-1.526 0 1.4 1.4 0 0 0-.532.564l-12.785 25.281h-3.023v2.724h34.205v-2.725h-3.024zm-1.294 3.738 10.894 21.542h-21.788zm-120.072-4.657c-8.452 0-15.332 6.522-15.332 14.535s6.879 14.535 15.332 14.535 15.334-6.521 15.334-14.535-6.88-14.535-15.334-14.535m0 26.346c-6.87 0-12.46-5.298-12.46-11.811s5.59-11.811 12.46-11.811 12.46 5.298 12.46 11.811c0 6.512-5.589 11.811-12.46 11.811m80.004-26.346c-8.454 0-15.333 6.522-15.333 14.535s6.879 14.535 15.333 14.535c8.453 0 15.333-6.521 15.333-14.535s-6.88-14.535-15.333-14.535m0 26.346c-6.87 0-12.46-5.298-12.46-11.811s5.59-11.811 12.46-11.811 12.46 5.298 12.46 11.811c0 6.512-5.59 11.811-12.46 11.811m330.791-31.344h-180.75v38.825h180.75zm-4.299 4.417v29.991H769.797v-29.991z"/><path fill="#BCBCBC" d="M802.463 307.357h6.877v-3.743h-11.13v16.227h4.253zm32.033 5.882h7.737v6.602h4.253v-16.227h-4.253v5.882h-7.737v-5.882h-4.253v16.227h4.253zm19.523 6.602h4.253v-12.484h5.09v-3.743h-14.433v3.743h5.09zm35.245 0h4.253v-12.484h5.09v-3.743h-14.433v3.743h5.09zm37.484.326c6.697 0 9.389-4.603 9.389-8.486 0-3.882-2.692-8.486-9.389-8.486s-9.388 4.604-9.388 8.486c-.022 3.883 2.692 8.486 9.388 8.486m-4.004-12.043c.747-.697 1.968-.953 4.004-1 2.036.024 3.258.303 4.005 1s.972 2.069.972 3.487c0 1.512-.226 2.93-.972 3.674-.837.813-2.67.953-4.005.976-1.334-.023-3.167-.163-4.004-.976-.746-.744-.972-2.162-.972-3.674 0-1.418.226-2.789.972-3.487m-48.863 12.043c5.859 0 8.506-3.534 9.071-6.998l-4.117-.814c-.068 1.209-.317 2.325-.95 2.93-.837.813-2.669.953-4.004.976-1.335-.023-3.167-.163-4.004-.976-.747-.744-.973-2.162-.973-3.674 0-1.418.226-2.766.973-3.487.746-.697 1.968-.953 4.004-1 2.036.024 3.257.303 4.004 1 .633.605.905 1.697.95 2.906l4.095-.814c-.566-3.487-3.19-6.997-9.072-6.997-6.696 0-9.388 4.603-9.388 8.485 0 3.86 2.692 8.463 9.411 8.463m41.76-4.51c0-2.209-1.289-3.488-3.665-4.022a9 9 0 0 0 1.109-.419c1.38-.628 2.081-1.79 2.081-3.255 0-2.627-1.606-4.347-5.294-4.347h-8.777v16.204s7.918.023 9.796.023c2.646 0 4.75-1.325 4.75-4.184m-11.017-8.579h4.728c.747 0 1.539.604 1.539 1.581 0 .767-.543 1.581-1.539 1.581h-4.728zm5.158 9.323h-5.158v-3.162h5.158c.747 0 1.538.604 1.538 1.581 0 .767-.543 1.581-1.538 1.581m-90.126 3.766c4.004 0 6.606-1.581 7.646-4.255l-3.506-1.534c-1.109 2.255-2.941 2.209-4.57 2.209-2.352 0-4.298-.907-4.298-3.372h12.668c.634-7.021-3.687-10.02-8.144-10.02-5.904 0-8.754 4.185-8.754 8.486-.023 4.324 2.556 8.486 8.958 8.486m-.407-13.043c3.913 0 4.388 2.209 4.366 3.185h-8.71c-.067-1.72 1.358-3.185 4.344-3.185m-36.308 13.113c3.257 0 5.429-1.349 6.628-3.697h.181l.203 3.325h4.163v-16.251h-4.163l-.203 3.371h-.181c-1.606-2.72-3.846-3.697-6.832-3.697-4.253 0-7.737 3.79-7.737 8.463 0 4.696 3.122 8.486 7.941 8.486m-3.19-8.463v.023c0-1.581.317-2.604 1.086-3.371.859-.86 2.194-1.023 3.574-1.046 1.357.023 3.009.349 3.891 1.186.724.674 1.131 1.86 1.131 3.255s-.407 2.58-1.131 3.254c-.882.814-2.534 1.163-3.891 1.186-1.357-.023-2.715-.186-3.574-1.046-.769-.791-1.086-1.79-1.086-3.371v.023z"/><path fill="#BCBCBC" fill-rule="evenodd" d="M576.468 92.856h7.721l-12.834 20.747 12.781 20.663h-7.721l-8.921-14.422-8.919 14.422h-7.721l12.78-20.663-12.833-20.747h7.721l8.972 14.506zm-23.27 13.164c0-4.739-3.874-8.594-8.635-8.594h-3.557c-4.761 0-8.635 3.855-8.635 8.594v3.001h6.136v-3.001a2.496 2.496 0 0 1 2.499-2.487h3.557a2.495 2.495 0 0 1 2.499 2.487v4.488h-6.056v6.108h6.056v4.488a2.496 2.496 0 0 1-2.499 2.487h-3.557a2.497 2.497 0 0 1-2.499-2.487v-3.001h-6.136v3.001c0 4.739 3.874 8.594 8.635 8.594h3.557c4.761 0 8.635-3.855 8.635-8.594zm41.155-8.594h-3.556c-4.762 0-8.636 3.855-8.636 8.594v15.083c0 4.738 3.874 8.594 8.636 8.594h3.556c4.761 0 8.635-3.856 8.635-8.594V106.02c0-4.739-3.874-8.594-8.635-8.594m2.499 23.677a2.496 2.496 0 0 1-2.499 2.487h-3.556a2.496 2.496 0 0 1-2.499-2.487V106.02a2.495 2.495 0 0 1 2.499-2.487h3.556a2.495 2.495 0 0 1 2.499 2.487z" clip-rule="evenodd"/><path fill="#BCBCBC" d="M388.383 20.726c-.581-1.114-1.314-2.003-2.222-2.666a9.2 9.2 0 0 0-2.892-1.402c-1.01-.275-1.957-.425-2.841-.425h-6.552V8.686h-5.77V33.69h12.335c.884 0 1.831-.137 2.841-.425a8.9 8.9 0 0 0 2.892-1.414c.908-.664 1.653-1.552 2.221-2.678.581-1.114.859-2.529.859-4.23-.012-1.69-.303-3.104-.871-4.218m-5.429 6.495a3 3 0 0 1-1.44 1.139 5.6 5.6 0 0 1-1.894.325h-5.744V21.25h5.744c.67 0 1.301.113 1.894.326a2.93 2.93 0 0 1 1.44 1.113c.366.526.543 1.277.543 2.253 0 .989-.177 1.74-.543 2.278M361.503 8.686h-15.302l-7.361 20h-3.485v9.298h5.404v-4.293h18.787v4.293h5.403v-9.299h-3.446zm-5.783 20h-11.161l5.517-15.02h5.644zm-32.952-20-9.192 25.005h6.124l9.191-25.005zm10.832 0-9.191 25.005h6.123l9.192-25.005zm-21.64 0-9.191 25.005h6.123l9.191-25.005zm-9.33 7.046c-.556-1.502-1.301-2.753-2.222-3.767-.935-1.001-1.97-1.802-3.106-2.378a13.7 13.7 0 0 0-3.498-1.226c-1.212-.238-2.335-.363-3.409-.363s-2.196.125-3.383.362a13.7 13.7 0 0 0-3.497 1.227c-1.137.576-2.185 1.377-3.119 2.378-.947 1.001-1.692 2.265-2.247 3.767-.556 1.502-.834 3.317-.834 5.432s.278 3.93.834 5.431c.555 1.502 1.3 2.754 2.247 3.768.947 1 1.982 1.802 3.119 2.377a13.7 13.7 0 0 0 3.497 1.24c1.187.25 2.323.375 3.383.375 1.074 0 2.197-.125 3.384-.376a14.2 14.2 0 0 0 3.497-1.239c1.137-.575 2.172-1.376 3.106-2.378.935-1 1.68-2.265 2.222-3.767.556-1.501.834-3.316.834-5.431.012-2.128-.265-3.93-.808-5.432m-5.518 9.5c-.391 1.076-.921 1.927-1.59 2.54a5.8 5.8 0 0 1-2.26 1.289 9.06 9.06 0 0 1-5.164 0 5.7 5.7 0 0 1-2.273-1.29c-.669-.612-1.199-1.45-1.603-2.54-.392-1.076-.594-2.44-.594-4.08 0-1.614.202-2.966.594-4.03.391-1.063.934-1.902 1.603-2.515a5.75 5.75 0 0 1 2.273-1.302 8.6 8.6 0 0 1 2.588-.388 8.5 8.5 0 0 1 2.576.388c.833.263 1.59.7 2.26 1.302q1.003.92 1.59 2.515c.392 1.064.581 2.416.581 4.03 0 1.64-.189 3.004-.581 4.08M273.061 8.686h-15.303l-7.348 20h-3.484v9.298h5.403v-4.293h18.787v4.293h5.404v-9.299h-3.459zm-5.77 20H256.13l5.517-15.02h5.644z"/><path fill="#BCBCBC" fill-rule="evenodd" d="M530.001 15.012v17.039l7.602 2.486V15.012h4.891v17.039l7.558 2.486 4.935-6.907h-4.891V10.822l-7.558-2.717-4.935 5.986v-3.27l-7.558-2.716-4.935 5.986v-3.27l-7.558-2.716-4.935 6.907h4.891v17.039l7.602 2.486V15.012zm81.627 12.618V10.59l-7.603-2.486V31.82l7.558 2.717 4.935-5.986v3.27l7.558 2.716 4.935-6.907h-4.891V10.59l-7.602-2.486V27.63zm56.107-16.118-7.425-3.407-8.803 4.328 8.803 3.408-12.093 6.033v9.854l7.603 2.81 4.49-6.033v3.315l7.603 2.717 4.712-6.953h-4.89zM564.812 34.537l8.714-3.592-8.714-3.361v-4.835l11.426-5.71-6.491-8.934-12.537 6.217v16.854zm81.76-7.46-9.247-2.9 8.669-11.421-10.848-4.651-5.69 7.46 9.291 2.947-8.847 11.374 10.982 4.651zm9.248.553v-6.815l4.49-2.21v9.025zm-91.008-15.058 3.824 5.433-3.824 1.889zm13.382 18.604 7.603 3.361 12.493-5.157V8.98L578.194 0v7.953l12.493 5.112v16.36l-4.89-1.841V13.216l-7.603 2.487z" clip-rule="evenodd"/><path fill="#BCBCBC" d="M809.279 34.646h5.174v-8.798h9.305v8.798h5.173V12.417h-5.173v8.704h-9.305v-8.704h-5.174zm95.369 0h7.881c6.512 0 11.787-4.979 11.787-11.115s-5.275-11.114-11.787-11.114h-7.881zm5.202-4.572V16.987h2.679c3.907 0 6.544 2.943 6.544 6.544s-2.637 6.543-6.544 6.543zm-30.056 4.596V12.44h-5.2v13.745L863.427 12.44h-4.44v22.23h5.202V20.925l11.165 13.745zm-27.166 0h5.202V12.44h-5.202zm45.662 0h5.202V12.44h-5.202zm-68.204.024h14.45V29.93h-9.266v-3.98h7.531v-4.765h-7.531v-3.98h9.267v-4.764h-14.45z"/><path fill="#BCBCBC" d="M924.3 34.694h14.45V29.93h-9.267v-3.98h7.531v-4.765h-7.531v-3.98h9.267v-4.764H924.3zm-126.003-.024h5.202V17.2h5.779v-4.76h-16.761v4.76h5.78zm91.185.332c4.977 0 8.23-2.946 8.23-6.739 0-3.51-2.31-5.83-6.117-6.8l-2.634-.658c-1.822-.47-2.831-1.16-2.798-2.383s1.204-1.819 2.733-1.819c1.269 0 2.667.596 3.187 2.352h5.141c-.162-3.385-3.221-6.958-8.328-6.958-4.783 0-7.938 2.601-7.938 6.77.032 3.51 2.569 5.704 6.246 6.675l2.245.565c2.212.596 3.025 1.38 3.025 2.413 0 1.254-1.269 1.974-2.992 1.974-2.05 0-3.579-1.034-3.937-2.914h-5.173c.163 3.73 3.417 7.522 9.11 7.522m50.424-.332h5.203l-.022-9.173h.815l7.721 9.173h6.224l-8.179-9.8c2.966-1.001 4.53-2.848 4.53-5.729 0-3.663-2.802-6.7-7.169-6.7h-9.123zm5.203-13.4v-4.258h3.301c1.532 0 2.639.782 2.639 2.13 0 1.283-1.107 2.128-2.639 2.128zM47.14 12.253a6.05 6.05 0 0 0-1.55-2.693 6.1 6.1 0 0 0-2.69-1.573c-3.766-.989-18.83-.989-18.83-.989s-15.072 0-18.838.989a6 6 0 0 0-2.694 1.562 6 6 0 0 0-1.546 2.696C0 15.994 0 23.773 0 23.773s0 7.818.993 11.528A6.03 6.03 0 0 0 2.561 38a6.07 6.07 0 0 0 2.71 1.56c3.728.989 18.792.989 18.792.989s15.072 0 18.838-.989a6.16 6.16 0 0 0 2.692-1.554 6.1 6.1 0 0 0 1.585-2.666c.994-3.75.994-11.529.994-11.529s-.039-7.817-1.032-11.558M19.266 30.959V16.587l12.528 7.186zm50.639 6.593a4.96 4.96 0 0 1-2.025-3.003 20.5 20.5 0 0 1-.596-5.369v-3.042c-.042-1.84.197-3.676.71-5.445a5.5 5.5 0 0 1 2.14-2.996 7.23 7.23 0 0 1 3.85-.95c1.55 0 2.819.32 3.766.95.993.746 1.75 1.772 2.062 2.997.474 1.779.718 3.589.634 5.444v3.042c.039 1.817-.152 3.635-.634 5.407a5.32 5.32 0 0 1-2.062 3.003c-.947.632-2.261.943-3.88.943-1.666-.038-3.018-.35-3.973-.988zm5.347-3.315c.282-.677.397-1.825.397-3.361v-6.51a10.4 10.4 0 0 0-.397-3.315 1.45 1.45 0 0 0-1.383-1.065 1.4 1.4 0 0 0-1.352 1.065 10.6 10.6 0 0 0-.397 3.316v6.547c0 1.544.122 2.684.397 3.361a1.334 1.334 0 0 0 1.39 1.026 1.4 1.4 0 0 0 1.345-1.064m67.834-5.019v1.065c0 1.026.046 2.015.122 3.041a2.83 2.83 0 0 0 .52 1.46 1.52 1.52 0 0 0 1.192.472 1.53 1.53 0 0 0 1.466-.829c.275-.547.397-1.46.436-2.76l4.079.273a4.3 4.3 0 0 1 .046.76c0 1.925-.52 3.385-1.589 4.335q-1.603 1.423-4.522 1.422c-2.338 0-3.965-.752-4.912-2.205-.948-1.452-1.429-3.718-1.429-6.798v-3.666c0-3.163.474-5.452 1.467-6.912s2.658-2.167 4.996-2.167c1.627 0 2.895.312 3.766.912a4.94 4.94 0 0 1 1.864 2.76c.397 1.697.596 3.468.512 5.21v3.589zm.604-8.836a2.8 2.8 0 0 0-.482 1.46 42 42 0 0 0-.114 3.08v1.498h3.491v-1.498c0-1.027-.046-2.054-.161-3.08a2.8 2.8 0 0 0-.519-1.46 1.33 1.33 0 0 0-1.108-.434 1.3 1.3 0 0 0-1.107.434m-85.366 8.44L52.93 9.364h4.72l1.903 8.806c.473 2.167.832 4.03 1.07 5.566h.152c.168-1.11.52-2.92 1.07-5.528l1.986-8.844h4.72l-5.47 19.467v9.354h-4.72V28.83h-.038zm37.47-11.68v21.042h-3.729l-.397-2.57h-.122c-.993 1.938-2.536 2.92-4.553 2.92-1.39 0-2.422-.472-3.094-1.377-.68-.912-.993-2.334-.993-4.304v-15.71h4.76v15.436a5 5 0 0 0 .312 2.008 1.045 1.045 0 0 0 1.032.593c.428-.01.843-.148 1.191-.395a2.14 2.14 0 0 0 .833-.943v-16.7zm24.383 0v21.042h-3.728l-.397-2.57h-.122c-.994 1.938-2.537 2.92-4.553 2.92-1.391 0-2.422-.472-3.094-1.377-.68-.912-.993-2.334-.993-4.304v-15.71h4.759v15.436a5 5 0 0 0 .313 2.008 1.05 1.05 0 0 0 1.031.593c.428-.01.844-.148 1.192-.395a2.15 2.15 0 0 0 .833-.943v-16.7zm-11.459-3.954h-4.721v24.996h-4.636V13.196H94.64V9.363h14.078v3.833zm27.195 7.308c-.275-1.3-.748-2.281-1.382-2.882a3.9 3.9 0 0 0-2.659-.913 4.3 4.3 0 0 0-2.46.76 4.84 4.84 0 0 0-1.741 1.932h-.039V8.298h-4.56v29.886h3.926l.474-1.977h.115a4.04 4.04 0 0 0 1.665 1.695 5.3 5.3 0 0 0 2.46.631 3.83 3.83 0 0 0 3.567-2.205c.756-1.46 1.146-3.794 1.146-6.912V26.1a37 37 0 0 0-.512-5.604m-4.354 8.57c0 1.179-.046 2.403-.199 3.59a3.86 3.86 0 0 1-.641 1.855 1.5 1.5 0 0 1-1.184.547 1.97 1.97 0 0 1-1.07-.273 2.3 2.3 0 0 1-.794-.83V22.04a3.2 3.2 0 0 1 .832-1.422 1.72 1.72 0 0 1 1.268-.556c.436 0 .871.198 1.108.555.321.594.52 1.217.558 1.894.114 1.262.152 2.525.152 3.787z"/></svg>