<svg width="18" height="18" viewBox="0 0 18 18" fill="none" xmlns="http://www.w3.org/2000/svg">
<path d="M2.5648 0.720001L10.3611 8.46L12.4986 6.3225L3.04855 0.866251C2.89105 0.774845 2.7223 0.72422 2.5648 0.720001ZM1.9123 1.08C1.84199 1.20516 1.7998 1.35281 1.7998 1.51875V16.56C1.7998 16.6809 1.82512 16.7892 1.8673 16.8863L9.84356 8.96625L1.9123 1.08ZM13.1511 6.69375L10.8673 8.96625L13.1511 11.2275L15.9411 9.63C16.3376 9.40078 16.3939 9.10969 16.3911 8.955C16.3868 8.69906 16.2251 8.46 15.9523 8.31375C15.7146 8.18578 13.9498 7.15781 13.1511 6.69375ZM10.3611 9.4725L2.4973 17.2688C2.62809 17.2617 2.77012 17.2336 2.9023 17.1563C3.21027 16.9777 9.43855 13.3763 9.43855 13.3763L12.5098 11.61L10.3611 9.4725Z" fill="white"/>
</svg>
