<svg width="85" height="36" viewBox="0 0 85 36" fill="none" xmlns="http://www.w3.org/2000/svg">
<g clip-path="url(#clip0_2203_18354)">
<path d="M78.2294 0V15.1012H81.1109V0H84.9973V36H81.1109V20.1949H78.2294V36H74.3429V0H78.2294Z" fill="white"/>
<path d="M72.3195 0V5.00507H67.9091V15.1039H72.0148V20.0203H67.9091V30.9949H72.3649V36H64.0226V0H72.3222H72.3195Z" fill="white"/>
<path d="M61.4833 36H57.5969V11.0203H57.3777L55.1511 36H52.4006L50.1286 11.0203H49.9094V36H46.023V0H52.0077L53.7104 24.3215H53.9296L55.4986 0H61.4807V36H61.4833Z" fill="white"/>
<path d="M43.9995 0V5.00507H39.5892V15.1039H43.6948V20.0203H39.5892V30.9949H44.045V36H35.7027V0H44.0022H43.9995Z" fill="white"/>
<path d="M21.4772 0V5.00507H17.0668V15.1039H21.1725V20.0203H17.0668V30.9949H21.5226V36H13.1803V0H21.4799H21.4772Z" fill="white"/>
<path d="M74.3429 15.0824H3.88648V20.109H74.3429V15.0824Z" fill="#FF4800"/>
<path d="M10.6571 0V36H6.7706V5.09373H3.88915V36H0V0H10.6571Z" fill="white"/>
<path d="M28.1756 0C29.9799 0 31.3912 0.513134 32.4123 1.53672C33.4307 2.5603 33.9412 4.4194 33.9412 7.11134V18.086C33.9412 20.8075 33.4307 22.68 32.4123 23.7063C31.3939 24.7003 29.9799 25.2 28.1756 25.2H27.3898V36H23.5033V0H28.1756ZM28.2184 20.1063C28.8893 20.1063 29.3678 19.9155 29.6591 19.5367C29.9505 19.1552 30.0948 18.4836 30.0948 17.5164V7.68358C30.0948 6.71642 29.9505 6.04478 29.6591 5.66328C29.3678 5.28179 28.8866 5.09373 28.2184 5.09373H27.3898V20.109H28.2184V20.1063Z" fill="white"/>
</g>
<defs>
<clipPath id="clip0_2203_18354">
<rect width="85" height="36" fill="white"/>
</clipPath>
</defs>
</svg>
